<svg xmlns="http://www.w3.org/2000/svg" xmlns:xlink="http://www.w3.org/1999/xlink" width="1080" height="1080" viewBox="0 0 1080 1080">
  <defs>
    <clipPath id="clip-cr_filled">
      <rect width="1080" height="1080"/>
    </clipPath>
  </defs>
  <g id="cr_filled" clip-path="url(#clip-cr_filled)">
    <g id="Layer_3" data-name="Layer 3" transform="translate(0.001 0.001)">
      <rect id="Rectangle_2" data-name="Rectangle 2" width="843.973" height="843.974" rx="241.794" transform="translate(285.94 0) rotate(19.804)" fill="#03b077"/>
    </g>
    <g id="Layer_5" data-name="Layer 5" transform="translate(216.743 242.662)">
      <g id="Group_4" data-name="Group 4" transform="translate(0 0)">
        <g id="Group_2" data-name="Group 2" transform="translate(0.235)">
          <path id="Path_1" data-name="Path 1" d="M2052.868,2870.671c-101.82-94.531-209.259-195.968-310.024-291.954a10.052,10.052,0,0,0-13.99.811c-1.464,1.527-5.695,5.843-7.231,7.437-69.211,73.464-141.738,146.12-217.823,212.378-111.5,96.629-115.5,98.326-14.737-14.924,67.177-75.236,140.783-146.873,215.084-215.151,2.1-1.94,6.322-6.072,8.437-7.957a33.792,33.792,0,0,1,46.515.911c1.741,1.745,5.858,5.987,7.639,7.8,35.153,35.633,99.521,102.328,134.968,138.845q76.793,79.673,153.248,159.688a1.485,1.485,0,0,1-2.085,2.112Z" transform="translate(-1416.676 -2552.482)" fill="#e7e7e7"/>
          <path id="Path_2" data-name="Path 2" d="M1853.52,2621.06c3.417,16.4,6.025,32.755,8.385,49.265,1.387,11.016,2.5,21.954,4.824,32.842,2.031,11.2-.271,22.149-4.2,32.843a62.449,62.449,0,0,1-9,16.421,1.883,1.883,0,0,1-2.645.322c-4.5-5.387-7.122-11.211-9.326-16.743-2.994-8.131-4.948-16.156-4.982-24.632.09-8.293,2.781-16.445,3.6-24.633,2.487-22.06,5.926-43.884,10.388-65.685a1.525,1.525,0,0,1,2.968,0Z" transform="translate(-1317.309 -2536.531)" fill="#e7e7e7"/>
          <g id="Group_1" data-name="Group 1" transform="translate(274.505 144.529)">
            <rect id="Rectangle_3" data-name="Rectangle 3" width="39.624" height="39.624" rx="5.741" fill="#e7e7e7"/>
            <rect id="Rectangle_4" data-name="Rectangle 4" width="39.624" height="39.624" rx="5.741" transform="translate(49.646)" fill="#e7e7e7"/>
            <rect id="Rectangle_5" data-name="Rectangle 5" width="39.624" height="39.624" rx="5.741" transform="translate(49.646 49.646)" fill="#e7e7e7"/>
            <rect id="Rectangle_6" data-name="Rectangle 6" width="39.624" height="39.624" rx="5.741" transform="translate(0 49.646)" fill="#e7e7e7"/>
          </g>
        </g>
        <g id="Group_3" data-name="Group 3" transform="translate(0 300.395)">
          <path id="Path_3" data-name="Path 3" d="M1566.131,3034.243c-12.421,1.814-48.19,9.648-68.406,14.888-3.579.927-7.118,2-10.008-.241a8,8,0,0,1-2.865-8.372,81.425,81.425,0,0,0-1.622-46.691c-3.384-10.023-7.149-22.167-9.833-33.628-2.23-11.558-3.75-24.181-4.754-34.711a81.426,81.426,0,0,0-17.579-43.286,8,8,0,0,1-.8-8.813,8.508,8.508,0,0,1,8.847-4.338,63.654,63.654,0,0,0,31.525-2.456l1.384-.49a591.536,591.536,0,0,1,148.515-31.7l1.463-.117a63.661,63.661,0,0,0,29.781-10.629,8.512,8.512,0,0,1,9.849.349h0c2.56,1.982,2.79,5.153,2.864,8.372,1.268,54.6,25.609,53.365,25.609,53.365-19.168-16.937-13.31-58.59-8.506-77.737a10.147,10.147,0,0,0-3.529-10.414h0a10.15,10.15,0,0,0-11.952-.494c-10.825,7.236-23.086,12.019-36.069,13.008l-1.774.137a699.237,699.237,0,0,0-180.015,38.42q-.838.3-1.677.6c-12.255,4.4-25.4,5.036-38.237,2.85a10.149,10.149,0,0,0-9.679,16.278,103.463,103.463,0,0,1,21.605,53.856c1.285,13.081,3.209,28.764,5.987,43.129,3.328,14.249,7.975,29.35,12.143,41.816a103.457,103.457,0,0,1,2.264,57.984h0a10.148,10.148,0,0,0,15.675,10.775C1486.967,3068.489,1566.131,3034.243,1566.131,3034.243Z" transform="translate(-1416.485 -2795.393)" fill="#abe3cb"/>
          <path id="Path_4" data-name="Path 4" d="M2037.479,2857.055l-.926,1.312c-.622.858-1.5,2.167-2.73,3.8q-.957,1.219-2.132,2.718l-1.248,1.564q-.679.786-1.412,1.636l-1.527,1.768-.806.932-.868.928q-.89.94-1.836,1.937c-.633.663-1.273,1.364-1.974,2.032a155.142,155.142,0,0,1-21.677,17.946c-2.272,1.506-4.605,3.115-7.107,4.589-1.245.745-2.49,1.549-3.8,2.277l-3.957,2.249c-5.391,2.958-11.231,5.756-17.429,8.449a242.384,242.384,0,0,1-41.487,13.25,310.934,310.934,0,0,1-48.009,6.829c-2.1.136-4.2.271-6.315.361l-3.178.152q-1.618.045-3.241.086l-6.216.159c-1.051.021-2.058.068-3.147.065l-3.241.011-6.513,0c-1.1,0-2.174-.009-3.244-.032l-3.226-.057-6.478-.138-6.479-.229c-17.311-.652-34.715-1.892-51.95-3.135s-34.3-2.458-50.982-3.078-33-.678-48.634.272c-1.89.1-3.831.277-5.76.426-1.93.132-3.841.339-5.748.522s-3.8.418-5.684.636c-1.89.2-3.753.475-5.616.718-7.437,1.04-14.677,2.325-21.665,3.851s-13.722,3.292-20.168,5.242c-6.454,1.933-12.59,4.127-18.388,6.471-5.815,2.315-11.252,4.858-16.367,7.429-5.1,2.589-9.781,5.361-14.156,8.045a166.72,166.72,0,0,0-21.347,16.064c-2.771,2.507-5.208,4.821-7.252,6.919q-.775.781-1.5,1.5l-1.321,1.434-2.315,2.495c-2.683,3.086-4.113,4.732-4.113,4.732l.7-1.445c.471-.948,1.119-2.392,2.078-4.216l1.663-3.024.977-1.738q.547-.885,1.138-1.84l1.232-1.99.651-1.05.719-1.051q.736-1.067,1.519-2.2c.524-.754,1.049-1.547,1.646-2.312a142.059,142.059,0,0,1,18.95-20.9c2.061-1.8,4.17-3.706,6.47-5.494l1.72-1.382.872-.7.9-.672,3.658-2.741a193.266,193.266,0,0,1,16.376-10.489,216.09,216.09,0,0,1,40.106-17.486c7.4-2.4,15.1-4.505,23.07-6.269q5.971-1.343,12.127-2.406c2.05-.349,4.112-.72,6.189-1.015,2.076-.314,4.155-.621,6.317-.877a394.113,394.113,0,0,1,51.558-2.728c17.464.126,35.037,1.122,52.411,2.372,17.371,1.272,34.558,2.774,51.358,3.92l6.285.435,6.238.356,3.108.189c1.039.068,2.068.126,3.076.163l6.074.268,3.025.146c1,.057,2.071.064,3.1.1l6.217.168,2.942.083,2.98.041c1.985.04,3.96.035,5.927.03a371.3,371.3,0,0,0,45.216-2.733,277.516,277.516,0,0,0,39.773-7.773c6.067-1.653,11.789-3.55,17.2-5.478,5.41-1.943,10.416-4.109,15.127-6.2a186.991,186.991,0,0,0,23.474-12.924c3.121-2.068,5.888-3.983,8.239-5.736q.891-.651,1.713-1.252.8-.628,1.53-1.2,1.477-1.152,2.681-2.089Z" transform="translate(-1390.967 -2780.8)" fill="#abe3cb"/>
          <path id="Path_5" data-name="Path 5" d="M1935.159,2981.28l-4.034,1.791c-1.325.563-2.924,1.326-4.895,2.038-1.959.73-4.2,1.657-6.774,2.482l-4.061,1.3-2.185.7q-1.13.31-2.306.636l-4.916,1.337c-1.71.423-3.5.8-5.336,1.222a201.715,201.715,0,0,1-25.084,3.859,255.918,255.918,0,0,1-30.053.932,304.068,304.068,0,0,1-33.447-2.792l-2.169-.291-.544-.073-.591-.09-1.072-.168-4.3-.684-4.332-.7-4.406-.8-4.437-.815-2.227-.412-2.21-.446-8.885-1.845c-11.875-2.538-23.811-5.5-35.707-8.46-11.881-3.022-23.72-6.058-35.362-8.947-5.828-1.4-11.6-2.81-17.319-4.1l-4.274-.976-4.253-.9c-2.828-.585-5.627-1.241-8.418-1.756-2.787-.538-5.55-1.108-8.294-1.6q-4.122-.7-8.158-1.416c-1.344-.253-2.688-.433-4.023-.633l-3.982-.589-3.892-.573-3.945-.494-1.948-.242-1.9-.2q-1.894-.2-3.761-.395c-2.51-.2-4.984-.446-7.421-.592l-3.626-.241c-1.2-.077-2.387-.11-3.565-.167s-2.346-.118-3.5-.139l-3.436-.079c-9.074-.187-17.413.1-24.791.666s-13.8,1.376-19.075,2.2c-5.261.882-9.4,1.652-12.2,2.284l-4.307.947,4.128-1.566c1.345-.527,3.037-1.064,5.02-1.738,1.975-.708,4.294-1.344,6.884-2.106,5.2-1.431,11.58-3.031,19.016-4.32a218.314,218.314,0,0,1,25.2-2.864,247.1,247.1,0,0,1,30.1.147l3.966.272,4.1.4,4.107.405c1.376.139,2.765.256,4.149.449q4.159.517,8.4,1.086c2.823.4,5.659.875,8.528,1.317s5.743.958,8.637,1.49l4.358.8,4.365.872c2.915.6,5.867,1.153,8.8,1.807l8.842,1.967c11.824,2.674,23.718,5.7,35.592,8.66q8.9,2.274,17.751,4.465l8.823,2.173,8.773,2.1c5.836,1.316,11.627,2.662,17.312,3.833l4.266.9,4.311.82,4.279.827,1.063.208.475.093.525.09,2.1.361c11.156,1.941,22.022,3.35,32.369,4.192s20.171,1.155,29.242,1.008a234.589,234.589,0,0,0,24.723-1.651c1.833-.232,3.616-.425,5.327-.671l4.937-.788,2.33-.363,2.212-.443,4.129-.824c5.179-1.188,9.289-2.125,12.041-2.984C1933.681,2981.691,1935.159,2981.28,1935.159,2981.28Z" transform="translate(-1384.953 -2759.026)" fill="#abe3cb"/>
        </g>
      </g>
    </g>
  </g>
</svg>
