<svg width="1080" height="1080" viewBox="0 0 1080 1080" fill="none" xmlns="http://www.w3.org/2000/svg">
<g clip-path="url(#clip0_1237_189)">
<mask id="mask0_1237_189" style="mask-type:luminance" maskUnits="userSpaceOnUse" x="0" y="0" width="1080" height="1080">
<path d="M1080 0H0V1080H1080V0Z" fill="white"/>
</mask>
<g mask="url(#mask0_1237_189)">
<path d="M893.99 159.422L509.908 21.1139C367.589 -30.1354 210.671 43.6914 159.421 186.011L21.1125 570.094C-30.1367 712.413 43.69 869.331 186.009 920.58L570.091 1058.89C712.41 1110.14 869.329 1036.31 920.578 893.992L1058.89 509.909C1110.14 367.59 1036.31 210.672 893.99 159.422Z" fill="#F4F6F9"/>
<path d="M933.671 564.801L554.437 190.272C549.297 185.197 542.364 182.351 535.141 182.351C527.917 182.351 520.985 185.197 515.845 190.272L136.608 564.801" stroke="#03B077" stroke-width="64" stroke-miterlimit="10" stroke-linecap="round"/>
<path d="M805.242 273.378V437.968" stroke="#03B077" stroke-width="64" stroke-miterlimit="10" stroke-linecap="round"/>
<path d="M513.533 348.55H472.467C466.134 348.55 461 353.684 461 360.017V401.083C461 407.416 466.134 412.55 472.467 412.55H513.533C519.866 412.55 525 407.416 525 401.083V360.017C525 353.684 519.866 348.55 513.533 348.55Z" fill="#03B077"/>
<path d="M597.533 348.55H556.467C550.134 348.55 545 353.684 545 360.017V401.083C545 407.416 550.134 412.55 556.467 412.55H597.533C603.866 412.55 609 407.416 609 401.083V360.017C609 353.684 603.866 348.55 597.533 348.55Z" fill="#03B077"/>
<path d="M597.533 432.55H556.467C550.134 432.55 545 437.684 545 444.017V485.083C545 491.416 550.134 496.55 556.467 496.55H597.533C603.866 496.55 609 491.416 609 485.083V444.017C609 437.684 603.866 432.55 597.533 432.55Z" fill="#03B077"/>
<path d="M513.533 432.55H472.467C466.134 432.55 461 437.684 461 444.017V485.083C461 491.416 466.134 496.55 472.467 496.55H513.533C519.866 496.55 525 491.416 525 485.083V444.017C525 437.684 519.866 432.55 513.533 432.55Z" fill="#03B077"/>
<path d="M322.487 843.084C306.926 845.357 262.112 855.169 236.782 861.736C232.299 862.898 227.864 864.241 224.243 861.435C222.68 860.233 221.505 858.597 220.867 856.731C220.228 854.865 220.154 852.852 220.654 850.944C225.705 831.666 224.998 811.33 218.621 792.448C214.382 779.898 209.664 764.676 206.302 750.316C203.513 735.834 201.604 720.02 200.346 706.825C198.459 686.986 190.803 668.134 178.322 652.597C177.087 651.06 176.332 649.193 176.153 647.229C175.975 645.265 176.379 643.292 177.316 641.557C178.372 639.613 180.005 638.045 181.991 637.071C183.977 636.097 186.217 635.766 188.401 636.122C201.615 638.434 215.2 637.376 227.897 633.044C228.476 632.838 229.053 632.634 229.631 632.425C289.691 611.248 352.23 597.9 415.702 592.713L417.535 592.566C430.894 591.335 443.727 586.755 454.847 579.249C456.695 578.033 458.875 577.422 461.086 577.5C463.296 577.578 465.428 578.341 467.186 579.684C470.393 582.163 470.681 586.141 470.774 590.174C472.362 658.575 502.859 657.033 502.859 657.033C478.843 635.807 486.183 583.627 492.202 559.639C492.796 557.269 492.695 554.778 491.911 552.463C491.127 550.149 489.693 548.11 487.78 546.59C485.671 544.914 483.085 543.95 480.394 543.839C477.702 543.727 475.045 544.474 472.805 545.97C459.398 555.206 443.831 560.82 427.615 562.268C426.872 562.324 426.131 562.381 425.392 562.44C348.42 568.477 272.584 584.662 199.855 610.574L197.754 611.325C182.36 616.624 165.857 617.854 149.848 614.897C147.315 614.466 144.712 614.812 142.381 615.889C140.049 616.966 138.098 618.725 136.786 620.932C135.473 623.14 134.859 625.694 135.026 628.257C135.193 630.82 136.133 633.272 137.721 635.291C152.995 654.74 162.388 678.152 164.79 702.764C166.399 719.155 168.81 738.804 172.29 756.802C176.459 774.652 182.282 793.573 187.503 809.192C195.36 832.641 196.344 857.848 190.34 881.839C189.709 884.354 189.862 887.002 190.779 889.428C191.696 891.854 193.333 893.942 195.47 895.411C197.607 896.88 200.142 897.66 202.735 897.647C205.329 897.634 207.856 896.829 209.979 895.338C223.305 885.986 322.487 843.084 322.487 843.084Z" fill="#01271B"/>
<path d="M945 639.367L943.839 641.011C943.065 642.088 941.966 643.727 940.418 645.777L937.747 649.186L936.184 651.144L934.414 653.195L932.501 655.41L931.491 656.579L930.406 657.741L928.105 660.168C927.312 660.998 926.511 661.872 925.626 662.712C917.274 671.015 908.183 678.54 898.468 685.196C895.621 687.085 892.698 689.101 889.563 690.946C888.003 691.876 886.443 692.889 884.808 693.8L879.85 696.618C873.097 700.324 865.779 703.829 858.014 707.203C841.221 714.285 823.825 719.84 806.035 723.802C786.239 728.215 766.128 731.076 745.886 732.357C743.26 732.529 740.618 732.697 737.973 732.81L733.991 733.002L729.931 733.11L722.143 733.309C720.826 733.333 719.565 733.394 718.2 733.391L714.139 733.405H705.979C704.605 733.405 703.255 733.392 701.915 733.364L697.873 733.293L689.757 733.12L681.64 732.831C659.949 732.017 638.146 730.463 616.553 728.905C594.959 727.348 573.582 725.825 552.678 725.049C531.774 724.273 511.335 724.2 491.746 725.39C489.379 725.512 486.943 725.737 484.529 725.924C482.115 726.112 479.717 726.349 477.328 726.578C474.939 726.808 472.568 727.102 470.201 727.375C467.833 727.619 465.499 727.97 463.165 728.275C453.847 729.578 444.777 731.186 436.022 733.098C427.266 735.01 418.824 737.224 410.753 739.667C402.683 742.111 394.979 744.836 387.716 747.775C380.434 750.676 373.616 753.861 367.21 757.081C360.814 760.325 354.956 763.799 349.474 767.162C340.036 773.145 331.092 779.875 322.729 787.287C319.257 790.428 316.205 793.33 313.643 795.964L311.77 797.848L310.116 799.645L307.215 802.77C303.853 806.636 302.062 808.699 302.062 808.699L302.934 806.888C303.525 805.7 304.336 803.89 305.537 801.605L307.621 797.818L308.845 795.638C309.303 794.901 309.778 794.132 310.271 793.333L311.82 790.841C312.086 790.409 312.358 789.97 312.635 789.526L313.535 788.209L315.438 785.453C316.095 784.509 316.752 783.516 317.5 782.557C324.525 773.062 332.479 764.291 341.242 756.373C343.825 754.121 346.467 751.724 349.349 749.487C350.062 748.915 350.781 748.338 351.504 747.757L352.588 746.883L353.71 746.04L358.293 742.605C364.908 737.884 371.755 733.498 378.81 729.465C394.774 720.48 411.61 713.14 429.057 707.557C438.323 704.554 447.981 701.912 457.961 699.701C462.948 698.581 468.012 697.577 473.154 696.689C475.723 696.252 478.306 695.788 480.909 695.417C483.51 695.022 486.114 694.643 488.823 694.319C510.257 691.769 531.835 690.627 553.419 690.901C575.299 691.056 597.316 692.305 619.084 693.873C640.848 695.467 662.381 697.348 683.429 698.784L691.303 699.329L699.118 699.776L703.012 700.013C704.313 700.096 705.602 700.168 706.865 700.217L714.476 700.552L718.265 700.735C719.505 700.806 720.861 700.815 722.15 700.859L729.938 701.069L733.624 701.175L737.358 701.226C739.837 701.275 742.316 701.269 744.784 701.262C763.72 701.275 782.638 700.132 801.434 697.839C818.259 695.811 834.914 692.556 851.265 688.098C858.866 686.028 866.035 683.65 872.819 681.236C879.604 678.822 885.87 676.086 891.771 673.472C901.949 668.785 911.778 663.374 921.181 657.28C925.092 654.689 928.558 652.289 931.503 650.094L933.649 648.523L935.566 647.018L938.925 644.401L945 639.367Z" fill="#01271B"/>
<path d="M824.337 822.286L819.283 824.529C817.623 825.236 815.62 826.192 813.151 827.084C810.681 827.977 807.883 829.16 804.663 830.194L799.575 831.828L796.837 832.707L793.948 833.505L787.789 835.18C785.646 835.709 783.409 836.181 781.103 836.71C770.739 838.979 760.243 840.594 749.676 841.546C737.16 842.672 724.588 843.062 712.026 842.713C698.005 842.318 684.015 841.15 670.122 839.214L667.405 838.85L666.723 838.759L665.982 838.644L664.639 838.435L659.247 837.578L653.824 836.698L648.304 835.694L642.745 834.671L639.956 834.155L637.187 833.598L626.055 831.285C611.181 828.107 596.224 824.394 581.319 820.685C566.434 816.9 551.6 813.093 537.014 809.476C529.712 807.728 522.477 805.957 515.315 804.336L509.961 803.114L504.633 801.985C501.089 801.252 497.583 800.435 494.086 799.783C490.594 799.11 487.133 798.388 483.695 797.769C480.252 797.186 476.843 796.595 473.469 795.995C471.785 795.675 470.1 795.452 468.429 795.2L463.44 794.464L458.564 793.745L453.621 793.125L451.181 792.815L448.803 792.564L444.091 792.07C440.946 791.827 437.847 791.512 434.795 791.329L430.252 791.02C428.751 790.924 427.262 790.882 425.785 790.81C424.309 790.739 422.842 790.663 421.398 790.637L417.093 790.538C405.724 790.304 395.277 790.665 386.033 791.371C376.79 792.078 368.744 793.096 362.134 794.125C355.543 795.228 350.359 796.194 346.845 796.986L341.449 798.173L346.62 796.21C348.306 795.55 350.426 794.877 352.909 794.032C355.388 793.147 358.289 792.347 361.535 791.398C368.051 789.607 376.043 787.6 385.359 785.987C395.805 784.179 406.348 782.98 416.934 782.397C429.495 781.693 442.088 781.755 454.642 782.583L459.611 782.924L464.747 783.423L469.893 783.93C471.617 784.105 473.357 784.252 475.091 784.492C478.565 784.926 482.076 785.38 485.627 785.854C489.164 786.358 492.716 786.951 496.317 787.503C499.918 788.054 503.512 788.705 507.138 789.371L512.598 790.374L518.067 791.467C521.719 792.22 525.417 792.911 529.089 793.731L540.167 796.194C554.981 799.544 569.883 803.342 584.76 807.04C592.19 808.94 599.604 810.804 606.999 812.635L618.054 815.356L629.045 817.989C636.357 819.638 643.609 821.325 650.736 822.792L656.082 823.917L661.483 824.943L666.844 825.981L668.176 826.241L668.771 826.356L669.429 826.469L672.064 826.923C686.04 829.354 699.655 831.12 712.618 832.175C725.582 833.231 737.89 833.621 749.254 833.438C759.609 833.295 769.948 832.604 780.229 831.37C782.526 831.077 784.76 830.837 786.904 830.527L793.089 829.542L796.008 829.084L798.78 828.531L803.953 827.499C810.442 826.009 815.591 824.836 819.04 823.759L824.337 822.286Z" fill="#01271B"/>
</g>
</g>
<defs>
<clipPath id="clip0_1237_189">
<rect width="1080" height="1080" fill="white"/>
</clipPath>
</defs>
</svg>
