<svg xmlns="http://www.w3.org/2000/svg" xmlns:xlink="http://www.w3.org/1999/xlink" width="1080" height="1080" viewBox="0 0 1080 1080">
  <defs>
    <clipPath id="clip-cr_light">
      <rect width="1080" height="1080"/>
    </clipPath>
  </defs>
  <g id="cr_light" clip-path="url(#clip-cr_light)">
    <g id="Layer_3" data-name="Layer 3" transform="translate(-1156.991 -1148.391)">
      <rect id="Rectangle_22" data-name="Rectangle 22" width="843.975" height="843.976" rx="241.794" transform="translate(1442.931 1148.391) rotate(19.804)" fill="#f4f6f9"/>
    </g>
    <g id="Layer_5" data-name="Layer 5" transform="translate(-1137.882 -1129.282)">
      <g id="Group_23" data-name="Group 23">
        <g id="Group_21" data-name="Group 21">
          <path id="Path_29" data-name="Path 29" d="M1931.967,1685.289,1687.2,1443.559a17.724,17.724,0,0,0-24.908,0l-244.769,241.73" fill="rgba(0,0,0,0)" stroke="#03b077" stroke-linecap="round" stroke-miterlimit="10" stroke-width="24"/>
          <line id="Line_1" data-name="Line 1" y2="106.231" transform="translate(1849.076 1497.197)" fill="none" stroke="#03b077" stroke-linecap="round" stroke-miterlimit="10" stroke-width="24"/>
          <g id="Group_20" data-name="Group 20">
            <rect id="Rectangle_23" data-name="Rectangle 23" width="32.042" height="32.042" rx="5.741" transform="translate(1638.65 1545.715)" fill="#03b077"/>
            <rect id="Rectangle_24" data-name="Rectangle 24" width="32.042" height="32.042" rx="5.741" transform="translate(1678.796 1545.715)" fill="#03b077"/>
            <rect id="Rectangle_25" data-name="Rectangle 25" width="32.042" height="32.042" rx="5.741" transform="translate(1678.796 1585.861)" fill="#03b077"/>
            <rect id="Rectangle_26" data-name="Rectangle 26" width="32.042" height="32.042" rx="5.741" transform="translate(1638.65 1585.861)" fill="#03b077"/>
          </g>
        </g>
        <g id="Group_22" data-name="Group 22">
          <path id="Path_30" data-name="Path 30" d="M1537.494,1864.9c-10.044,1.467-38.968,7.8-55.316,12.038-2.894.75-5.756,1.617-8.093-.194a6.472,6.472,0,0,1-2.317-6.771,65.84,65.84,0,0,0-1.312-37.755c-2.736-8.1-5.781-17.925-7.951-27.193-1.8-9.347-3.032-19.554-3.844-28.07a65.839,65.839,0,0,0-14.215-35,6.469,6.469,0,0,1-.649-7.126,6.88,6.88,0,0,1,7.154-3.508,51.471,51.471,0,0,0,25.492-1.986c.374-.133.746-.265,1.119-.4a478.331,478.331,0,0,1,120.095-25.631l1.183-.095a51.488,51.488,0,0,0,24.082-8.595,6.884,6.884,0,0,1,7.964.281h0c2.07,1.6,2.256,4.167,2.316,6.77,1.025,44.148,20.708,43.153,20.708,43.153-15.5-13.7-10.763-47.378-6.878-62.861a8.208,8.208,0,0,0-2.854-8.422h0a8.206,8.206,0,0,0-9.665-.4,60.973,60.973,0,0,1-29.167,10.519q-.719.054-1.435.111a565.46,565.46,0,0,0-145.567,31.067l-1.356.485a60.976,60.976,0,0,1-30.92,2.305,8.206,8.206,0,0,0-7.827,13.163,83.665,83.665,0,0,1,17.471,43.549c1.039,10.579,2.595,23.261,4.841,34.877,2.691,11.521,6.449,23.733,9.819,33.814a83.66,83.66,0,0,1,1.831,46.888h0a8.206,8.206,0,0,0,12.675,8.713C1473.479,1892.59,1537.494,1864.9,1537.494,1864.9Z" fill="#01271b"/>
          <path id="Path_31" data-name="Path 31" d="M1939.279,1733.416l-.749,1.061c-.5.695-1.209,1.753-2.208,3.076l-1.724,2.2-1.009,1.264-1.142,1.324-1.235,1.429-.652.755-.7.75-1.485,1.566c-.512.536-1.029,1.1-1.6,1.642a125.349,125.349,0,0,1-17.529,14.512c-1.837,1.219-3.724,2.52-5.747,3.711-1.007.6-2.014,1.254-3.069,1.842l-3.2,1.819c-4.359,2.392-9.082,4.654-14.094,6.832a195.985,195.985,0,0,1-33.548,10.713,251.418,251.418,0,0,1-38.822,5.522c-1.695.111-3.4.219-5.107.292l-2.57.124-2.621.07-5.026.128c-.85.016-1.664.055-2.545.053l-2.621.009-5.267,0c-.887,0-1.758-.008-2.623-.026l-2.609-.046-5.238-.112-5.239-.186c-14-.526-28.072-1.529-42.009-2.534s-27.734-1.988-41.226-2.489-26.684-.548-39.327.22c-1.528.079-3.1.224-4.658.345s-3.106.274-4.648.422-3.072.338-4.6.514c-1.528.158-3.035.384-4.541.581-6.014.841-11.868,1.879-17.519,3.113s-11.1,2.663-16.309,4.24-10.181,3.336-14.869,5.233c-4.7,1.872-9.1,3.928-13.235,6.006-4.128,2.094-7.909,4.336-11.447,6.507a134.933,134.933,0,0,0-17.262,12.989c-2.241,2.027-4.211,3.9-5.864,5.6l-1.209,1.216-1.068,1.16-1.872,2.017c-2.17,2.495-3.326,3.827-3.326,3.827l.563-1.169c.381-.767.905-1.935,1.68-3.41l1.345-2.444.79-1.407q.443-.714.92-1.488l1-1.608q.258-.419.526-.849l.581-.85,1.228-1.779c.424-.609.848-1.25,1.331-1.869a114.856,114.856,0,0,1,15.324-16.9c1.667-1.453,3.372-3,5.232-4.444q.691-.554,1.391-1.117l.7-.564.724-.544,2.958-2.217a156.48,156.48,0,0,1,13.242-8.481,174.664,174.664,0,0,1,32.431-14.14c5.98-1.938,12.214-3.643,18.655-5.07q4.828-1.085,9.806-1.944c1.658-.282,3.325-.582,5.005-.821,1.679-.255,3.36-.5,5.108-.709a318.751,318.751,0,0,1,41.692-2.206c14.122.1,28.332.906,42.382,1.918,14.047,1.029,27.945,2.243,41.53,3.17l5.082.352,5.044.288,2.513.153c.84.054,1.672.1,2.487.132l4.912.216,2.446.118c.8.046,1.675.052,2.507.08l5.027.136,2.379.068,2.41.033c1.6.032,3.2.028,4.793.023a300.217,300.217,0,0,0,36.563-2.209,224.32,224.32,0,0,0,32.162-6.287c4.906-1.336,9.533-2.871,13.912-4.429s8.423-3.324,12.232-5.011a151.183,151.183,0,0,0,18.982-10.451c2.524-1.672,4.761-3.221,6.662-4.638l1.385-1.014,1.237-.971,2.168-1.689Z" fill="#01271b"/>
          <path id="Path_32" data-name="Path 32" d="M1861.4,1851.476l-3.262,1.448c-1.071.456-2.364,1.073-3.958,1.649s-3.4,1.34-5.478,2.007l-3.284,1.055-1.767.567-1.865.515-3.975,1.081c-1.383.342-2.827.646-4.315.988a163.41,163.41,0,0,1-20.284,3.121,207,207,0,0,1-24.3.753,246.027,246.027,0,0,1-27.046-2.258l-1.754-.235-.44-.059-.478-.074-.867-.135-3.48-.553-3.5-.568-3.563-.648-3.588-.66-1.8-.333-1.787-.36-7.185-1.493c-9.6-2.051-19.254-4.447-28.874-6.841-9.607-2.443-19.181-4.9-28.595-7.235-4.713-1.128-9.383-2.271-14.005-3.317l-3.456-.789-3.439-.729c-2.287-.473-4.55-1-6.807-1.421-2.254-.434-4.488-.9-6.707-1.3q-3.333-.564-6.6-1.145c-1.087-.206-2.174-.35-3.253-.513l-3.22-.475-3.147-.464-3.19-.4-1.575-.2-1.535-.162-3.041-.319c-2.03-.157-4.03-.36-6-.478l-2.932-.2c-.969-.062-1.93-.089-2.883-.135s-1.9-.095-2.832-.112l-2.778-.064c-7.338-.151-14.081.082-20.047.538s-11.159,1.113-15.425,1.777c-4.254.712-7.6,1.336-9.868,1.847l-3.483.766,3.338-1.267c1.088-.426,2.456-.86,4.059-1.406,1.6-.571,3.472-1.087,5.567-1.7,4.206-1.156,9.364-2.451,15.377-3.492a176.236,176.236,0,0,1,20.379-2.317,199.927,199.927,0,0,1,24.338.12l3.207.22,3.315.322,3.321.327c1.113.113,2.236.208,3.355.363q3.363.42,6.8.879c2.283.325,4.576.708,6.9,1.064s4.644.776,6.984,1.206l3.524.647,3.53.706c2.357.486,4.744.932,7.114,1.461l7.15,1.59c9.561,2.162,19.179,4.613,28.781,7q7.194,1.839,14.354,3.611l7.135,1.756,7.094,1.7c4.719,1.064,9.4,2.153,14,3.1l3.45.726,3.486.662,3.46.67.86.168.384.074.425.073,1.7.293c9.021,1.569,17.808,2.709,26.175,3.39s16.311.933,23.646.815a189.714,189.714,0,0,0,19.992-1.335c1.482-.189,2.924-.344,4.308-.544l3.992-.636,1.884-.295,1.789-.357,3.339-.666c4.188-.962,7.511-1.719,9.737-2.414Z" fill="#01271b"/>
        </g>
      </g>
    </g>
  </g>
</svg>
