<svg width="1080" height="1080" viewBox="0 0 1080 1080" fill="none" xmlns="http://www.w3.org/2000/svg">
<g clip-path="url(#clip0_1237_189)">
<mask id="mask0_1237_189" style="mask-type:luminance" maskUnits="userSpaceOnUse" x="0" y="0" width="1080" height="1080">
<path d="M1080 0H0V1080H1080V0Z" fill="white"/>
</mask>
<g mask="url(#mask0_1237_189)">
<path d="M1064.89 573.068L559.249 73.6974C552.397 66.9299 543.153 63.1351 533.522 63.1351C523.89 63.1351 514.647 66.9299 507.794 73.6974L2.14502 573.068" stroke="#03B077" stroke-width="24" stroke-miterlimit="10" stroke-linecap="round"/>
<path d="M893.657 184.504V403.958" stroke="#03B077" stroke-width="24" stroke-miterlimit="10" stroke-linecap="round"/>
<path d="M513.287 284.734H470.814C464.264 284.734 458.954 290.043 458.954 296.593V339.067C458.954 345.617 464.264 350.927 470.814 350.927H513.287C519.837 350.927 525.147 345.617 525.147 339.067V296.593C525.147 290.043 519.837 284.734 513.287 284.734Z" fill="#03B077"/>
<path d="M596.221 284.734H553.748C547.198 284.734 541.888 290.043 541.888 296.593V339.067C541.888 345.617 547.198 350.927 553.748 350.927H596.221C602.771 350.927 608.081 345.617 608.081 339.067V296.593C608.081 290.043 602.771 284.734 596.221 284.734Z" fill="#03B077"/>
<path d="M596.221 367.668H553.748C547.198 367.668 541.888 372.978 541.888 379.528V422.001C541.888 428.551 547.198 433.861 553.748 433.861H596.221C602.771 433.861 608.081 428.551 608.081 422.001V379.528C608.081 372.978 602.771 367.668 596.221 367.668Z" fill="#03B077"/>
<path d="M513.287 367.668H470.814C464.264 367.668 458.954 372.978 458.954 379.528V422.001C458.954 428.551 464.264 433.861 470.814 433.861H513.287C519.837 433.861 525.147 428.551 525.147 422.001V379.528C525.147 372.978 519.837 367.668 513.287 367.668Z" fill="#03B077"/>
<path d="M249.984 944.113C229.235 947.143 169.483 960.226 135.711 968.981C129.733 970.53 123.82 972.321 118.992 968.58C116.907 966.978 115.341 964.796 114.49 962.308C113.639 959.82 113.54 957.136 114.206 954.593C120.941 928.888 119.999 901.773 111.496 876.597C105.844 859.864 99.553 839.568 95.0702 820.422C91.3517 801.112 88.8066 780.026 87.1292 762.434C84.6135 735.982 74.4047 710.845 57.7636 690.13C56.1167 688.08 55.1109 685.59 54.8724 682.972C54.6339 680.353 55.1732 677.723 56.4228 675.409C57.8298 672.817 60.0082 670.727 62.6563 669.429C65.3043 668.13 68.2909 667.688 71.2018 668.162C88.8214 671.246 106.934 669.835 123.864 664.059C124.636 663.785 125.405 663.512 126.175 663.233C206.255 634.998 289.64 617.201 374.27 610.284L376.714 610.088C394.526 608.447 411.637 602.34 426.463 592.332C428.927 590.711 431.834 589.896 434.782 590C437.729 590.104 440.572 591.122 442.915 592.913C447.191 596.218 447.576 601.521 447.7 606.898C449.817 698.1 490.479 696.045 490.479 696.045C458.459 667.743 468.244 598.17 476.27 566.185C477.062 563.025 476.928 559.704 475.882 556.618C474.837 553.533 472.924 550.814 470.374 548.787C467.563 546.552 464.114 545.267 460.526 545.119C456.937 544.97 453.394 545.965 450.408 547.96C432.531 560.275 411.776 567.76 390.154 569.691C389.164 569.765 388.176 569.842 387.19 569.92C284.561 577.969 183.447 599.549 86.4743 634.099L83.6731 635.101C63.1473 642.165 41.1442 643.806 19.7978 639.862C16.4217 639.288 12.9508 639.749 9.84192 641.186C6.73309 642.622 4.13215 644.967 2.38182 647.91C0.631486 650.854 -0.186228 654.258 0.0363329 657.676C0.258894 661.093 1.51124 664.363 3.62857 667.055C23.9944 692.987 36.5178 724.202 39.7207 757.019C41.8671 778.874 45.0814 805.073 49.7212 829.069C55.2803 852.87 63.0436 878.097 70.0054 898.923C80.4807 930.188 81.7932 963.798 73.7881 995.785C72.9464 999.139 73.1504 1002.67 74.3729 1005.9C75.5953 1009.14 77.7778 1011.92 80.6273 1013.88C83.4768 1015.84 86.8571 1016.88 90.3149 1016.86C93.7727 1016.85 97.1426 1015.77 99.9725 1013.78C117.741 1001.32 249.984 944.113 249.984 944.113Z" fill="#01271B"/>
<path d="M1080 672.49L1078.45 674.682C1077.42 676.118 1075.95 678.303 1073.89 681.037L1070.33 685.582L1068.25 688.193L1065.89 690.928L1063.33 693.88L1061.99 695.44L1060.54 696.989L1057.47 700.224C1056.42 701.331 1055.35 702.496 1054.17 703.616C1043.03 714.686 1030.91 724.721 1017.96 733.595C1014.16 736.113 1010.26 738.801 1006.08 741.262C1004 742.501 1001.92 743.852 999.745 745.067L993.134 748.824C984.129 753.766 974.372 758.439 964.018 762.938C941.628 772.38 918.433 779.787 894.714 785.069C868.319 790.954 841.504 794.768 814.515 796.477C811.013 796.706 807.491 796.929 803.965 797.08L798.655 797.336L793.241 797.481L782.858 797.745C781.102 797.778 779.421 797.859 777.601 797.855L772.186 797.873H761.305C759.473 797.873 757.674 797.857 755.887 797.82L750.497 797.724L739.676 797.493L728.853 797.109C699.932 796.022 670.862 793.95 642.07 791.874C613.279 789.798 584.777 787.767 556.905 786.732C529.033 785.697 501.78 785.6 475.662 787.187C472.506 787.35 469.258 787.649 466.04 787.899C462.821 788.149 459.623 788.465 456.438 788.771C453.252 789.077 450.092 789.47 446.935 789.833C443.778 790.16 440.665 790.626 437.554 791.033C425.13 792.771 413.037 794.915 401.363 797.464C389.689 800.013 378.432 802.965 367.671 806.223C356.911 809.481 346.639 813.115 336.955 817.034C327.245 820.901 318.156 825.148 309.614 829.441C301.086 833.767 293.275 838.398 285.966 842.883C273.381 850.86 261.456 859.833 250.306 869.716C245.676 873.904 241.607 877.773 238.192 881.285L235.694 883.797L233.488 886.193L229.621 890.36C225.138 895.514 222.75 898.266 222.75 898.266L223.913 895.851C224.7 894.266 225.782 891.854 227.383 888.807L230.162 883.758L231.794 880.851C232.404 879.868 233.038 878.843 233.695 877.777L235.76 874.455C236.116 873.878 236.478 873.294 236.847 872.702L238.047 870.946L240.584 867.27C241.46 866.012 242.336 864.688 243.334 863.409C252.701 850.75 263.306 839.055 274.99 828.497C278.434 825.495 281.956 822.3 285.799 819.316C286.751 818.553 287.708 817.784 288.672 817.009L290.118 815.844L291.614 814.72L297.725 810.14C306.544 803.845 315.674 797.998 325.08 792.62C346.366 780.64 368.814 770.853 392.077 763.409C404.431 759.406 417.309 755.883 430.615 752.936C437.264 751.441 444.017 750.102 450.872 748.919C454.298 748.337 457.741 747.717 461.212 747.224C464.68 746.697 468.153 746.191 471.764 745.759C500.343 742.359 529.114 740.837 557.892 741.202C587.066 741.408 616.421 743.073 645.446 745.164C674.465 747.289 703.175 749.797 731.239 751.713L741.738 752.44L752.158 753.035L757.349 753.351C759.085 753.462 760.803 753.557 762.487 753.623L772.634 754.07L777.687 754.313C779.34 754.408 781.148 754.421 782.866 754.479L793.251 754.76L798.166 754.9L803.144 754.968C806.45 755.034 809.755 755.026 813.046 755.016C838.293 755.033 863.517 753.509 888.579 750.452C911.013 747.749 933.219 743.408 955.02 737.465C965.154 734.705 974.713 731.533 983.759 728.315C992.805 725.096 1001.16 721.448 1009.03 717.963C1022.6 711.714 1035.7 704.499 1048.24 696.373C1053.46 692.919 1058.08 689.719 1062 686.792L1064.87 684.697L1067.42 682.691L1071.9 679.202L1080 672.49Z" fill="#01271B"/>
<path d="M919.116 916.381L912.377 919.372C910.165 920.314 907.494 921.589 904.201 922.779C900.908 923.969 897.177 925.547 892.884 926.925L886.1 929.105L882.45 930.276L878.597 931.34L870.385 933.573C867.528 934.279 864.545 934.908 861.471 935.614C847.652 938.639 833.657 940.792 819.568 942.061C802.88 943.563 786.118 944.082 769.369 943.617C750.673 943.091 732.02 941.534 713.496 938.952L709.873 938.467L708.964 938.345L707.977 938.192L706.186 937.913L698.997 936.771L691.766 935.597L684.406 934.259L676.993 932.895L673.275 932.207L669.583 931.464L654.74 928.38C634.908 924.143 614.965 919.193 595.092 914.247C575.246 909.2 555.467 904.125 536.02 899.301C526.283 896.971 516.636 894.609 507.088 892.449L499.948 890.819L492.844 889.313C488.12 888.336 483.445 887.247 478.782 886.377C474.126 885.481 469.511 884.518 464.927 883.692C460.336 882.915 455.792 882.126 451.292 881.326C449.047 880.901 446.801 880.603 444.572 880.267L437.92 879.285L431.419 878.327L424.829 877.5L421.575 877.087L418.404 876.752L412.122 876.094C407.928 875.769 403.797 875.35 399.727 875.106L393.67 874.693C391.668 874.565 389.683 874.509 387.714 874.414C385.746 874.319 383.789 874.218 381.864 874.183L376.125 874.05C360.966 873.738 347.036 874.22 334.712 875.162C322.387 876.104 311.659 877.461 302.846 878.833C294.058 880.304 287.146 881.593 282.461 882.648L275.266 884.231L282.161 881.613C284.409 880.733 287.235 879.837 290.546 878.709C293.852 877.529 297.719 876.463 302.047 875.197C310.736 872.809 321.391 870.134 333.813 867.983C347.741 865.572 361.798 863.973 375.912 863.197C392.661 862.258 409.452 862.341 426.19 863.444L432.815 863.899L439.664 864.564L446.524 865.24C448.824 865.473 451.143 865.669 453.455 865.99C458.087 866.568 462.769 867.173 467.503 867.806C472.219 868.477 476.956 869.268 481.757 870.004C486.558 870.739 491.35 871.607 496.184 872.495L503.464 873.832L510.757 875.29C515.626 876.294 520.557 877.215 525.453 878.308L540.224 881.593C559.975 886.059 579.844 891.122 599.68 896.053C609.588 898.586 619.472 901.073 629.333 903.513L644.072 907.141L658.727 910.653C668.476 912.851 678.146 915.1 687.649 917.057L694.776 918.557L701.978 919.924L709.125 921.308L710.902 921.655L711.695 921.808L712.573 921.959L716.085 922.564C734.721 925.805 752.873 928.161 770.158 929.567C787.442 930.974 803.853 931.495 819.006 931.251C832.812 931.06 846.598 930.139 860.306 928.493C863.368 928.103 866.347 927.783 869.206 927.369L877.453 926.056L881.344 925.446L885.04 924.708L891.938 923.333C900.59 921.345 907.454 919.782 912.053 918.346L919.116 916.381Z" fill="#01271B"/>
</g>
</g>
<defs>
<clipPath id="clip0_1237_189">
<rect width="1080" height="1080" fill="white"/>
</clipPath>
</defs>
</svg>
