<svg width="48" height="56" viewBox="0 0 48 56" fill="none" xmlns="http://www.w3.org/2000/svg">
<path fill-rule="evenodd" clip-rule="evenodd" d="M30.9595 47.1602C31.0845 47.0015 31.2553 46.8847 31.4475 46.8221C41.0565 43.6884 48 34.6551 48 24C48 10.7452 37.2548 0 24 0C10.7452 0 0 10.7452 0 24C0 34.6551 6.94351 43.6884 16.5525 46.8221C16.7447 46.8847 16.9155 47.0015 17.0405 47.1602L23.2143 55.002C23.6147 55.5106 24.3853 55.5106 24.7857 55.002L30.9595 47.1602Z" fill="#0288D1"/>
<g clip-path="url(#clip0_476_169)">
<path d="M36.6082 21.7969L24.6558 9.85313C24.5697 9.76691 24.4675 9.69849 24.355 9.65182C24.2424 9.60514 24.1218 9.58112 24 9.58112C23.8782 9.58112 23.7575 9.60514 23.645 9.65182C23.5325 9.69849 23.4302 9.76691 23.3442 9.85313L11.3917 21.7969C11.0435 22.1451 10.8462 22.6181 10.8462 23.1114C10.8462 24.1357 11.679 24.9685 12.7033 24.9685H13.9627V33.4911C13.9627 34.0047 14.3777 34.4197 14.8913 34.4197H22.1428V27.9197H25.3928V34.4197H33.1087C33.6223 34.4197 34.0373 34.0047 34.0373 33.4911V24.9685H35.2966C35.7899 24.9685 36.2629 24.7741 36.6111 24.423C37.3337 23.6976 37.3337 22.5223 36.6082 21.7969Z" fill="white"/>
</g>
<defs>
<clipPath id="clip0_476_169">
<rect width="26" height="26" fill="white" transform="translate(11 9)"/>
</clipPath>
</defs>
</svg>
