<svg xmlns="http://www.w3.org/2000/svg" width="21" height="21" viewBox="0 0 21 21" fill="none">
  <g clip-path="url(#clip0_3629_4288)">
    <path d="M7.02051 16.125C7.02033 16.4687 6.92568 16.8057 6.7469 17.0993C6.56812 17.3929 6.31209 17.6316 6.00679 17.7895C5.70149 17.9474 5.35867 18.0183 5.01579 17.9945C4.67291 17.9707 4.34316 17.8532 4.06258 17.6547C3.78199 17.4562 3.56137 17.1843 3.42483 16.8689C3.28828 16.5535 3.24106 16.2066 3.28832 15.8662C3.33559 15.5257 3.47552 15.2048 3.69283 14.9385C3.91014 14.6723 4.19646 14.4708 4.52051 14.3563V12.375C4.52051 12.2092 4.58636 12.0503 4.70357 11.9331C4.82078 11.8158 4.97975 11.75 5.14551 11.75C5.31127 11.75 5.47024 11.8158 5.58745 11.9331C5.70466 12.0503 5.77051 12.2092 5.77051 12.375V14.3563C6.13623 14.4856 6.45285 14.7251 6.67672 15.0419C6.9006 15.3587 7.02071 15.7371 7.02051 16.125Z" fill="#8A93A6"/>
    <path d="M2.02051 3.625C2.02051 2.7962 2.34975 2.00134 2.9358 1.41529C3.52185 0.82924 4.31671 0.5 5.14551 0.5C5.97431 0.5 6.76917 0.82924 7.35522 1.41529C7.94127 2.00134 8.27051 2.7962 8.27051 3.625V13.0625C8.87343 13.6779 9.28126 14.4575 9.44285 15.3037C9.60445 16.1499 9.51262 17.025 9.17889 17.8192C8.84515 18.6134 8.28436 19.2914 7.56684 19.7682C6.84932 20.245 6.007 20.4994 5.14551 20.4994C4.28402 20.4994 3.4417 20.245 2.72418 19.7682C2.00666 19.2914 1.44587 18.6134 1.11213 17.8192C0.778397 17.025 0.686571 16.1499 0.848168 15.3037C1.00976 14.4575 1.41759 13.6779 2.02051 13.0625V3.625ZM5.14551 1.75C4.64823 1.75 4.17132 1.94754 3.81968 2.29917C3.46805 2.65081 3.27051 3.12772 3.27051 3.625V13.6088L3.06176 13.7963C2.58998 14.2182 2.25742 14.7734 2.1081 15.3884C1.95878 16.0035 1.99973 16.6494 2.22555 17.2406C2.45136 17.8319 2.85138 18.3406 3.37268 18.6996C3.89397 19.0585 4.51197 19.2507 5.14489 19.2507C5.7778 19.2507 6.3958 19.0585 6.91709 18.6996C7.43839 18.3406 7.83841 17.8319 8.06422 17.2406C8.29004 16.6494 8.33099 16.0035 8.18167 15.3884C8.03235 14.7734 7.69979 14.2182 7.22801 13.7963L7.02051 13.6075V3.625C7.02051 3.12772 6.82297 2.65081 6.47134 2.29917C6.1197 1.94754 5.64279 1.75 5.14551 1.75ZM11.3955 3C11.5613 3 11.7202 3.06585 11.8375 3.18306C11.9547 3.30027 12.0205 3.45924 12.0205 3.625V5.24125L12.828 4.4325C12.9454 4.31514 13.1045 4.24921 13.2705 4.24921C13.4365 4.24921 13.5957 4.31514 13.713 4.4325C13.8304 4.54986 13.8963 4.70903 13.8963 4.875C13.8963 5.04097 13.8304 5.20014 13.713 5.3175L12.0205 7.00875V9.4175L14.1068 8.21375L14.7255 5.90125C14.7468 5.82196 14.7836 5.74766 14.8337 5.68257C14.8837 5.61749 14.9461 5.5629 15.0172 5.52193C15.0884 5.48096 15.1669 5.4544 15.2483 5.44377C15.3298 5.43315 15.4125 5.43866 15.4918 5.46C15.571 5.48134 15.6454 5.51809 15.7104 5.56814C15.7755 5.6182 15.8301 5.68059 15.8711 5.75174C15.9121 5.82289 15.9386 5.90142 15.9492 5.98284C15.9599 6.06425 15.9544 6.14696 15.933 6.22625L15.6368 7.32875L17.0368 6.52125C17.1802 6.43968 17.3501 6.41816 17.5094 6.46141C17.6687 6.50465 17.8044 6.60914 17.8869 6.75207C17.9695 6.895 17.9921 7.06476 17.9499 7.22432C17.9077 7.38388 17.8041 7.52028 17.6618 7.60375L16.2618 8.41125L17.3668 8.7075C17.446 8.72884 17.5204 8.76559 17.5854 8.81564C17.6505 8.8657 17.7051 8.92809 17.7461 8.99924C17.7871 9.07039 17.8136 9.14892 17.8242 9.23034C17.8349 9.31175 17.8293 9.39446 17.808 9.47375C17.7867 9.55304 17.7499 9.62734 17.6999 9.69243C17.6498 9.75751 17.5874 9.8121 17.5163 9.85307C17.4451 9.89404 17.3666 9.9206 17.2852 9.93123C17.2038 9.94185 17.121 9.93634 17.0418 9.915L14.7318 9.29625L12.6455 10.5L14.7318 11.7038L17.043 11.085C17.1228 11.0623 17.2063 11.0556 17.2887 11.0655C17.371 11.0753 17.4506 11.1015 17.5228 11.1424C17.5949 11.1834 17.6582 11.2383 17.7089 11.3039C17.7596 11.3695 17.7968 11.4446 17.8182 11.5248C17.8396 11.6049 17.8448 11.6885 17.8336 11.7707C17.8224 11.8529 17.7949 11.932 17.7527 12.0035C17.7106 12.075 17.6547 12.1373 17.5882 12.1869C17.5217 12.2366 17.446 12.2724 17.3655 12.2925L16.2618 12.5887L17.6618 13.3963C17.8041 13.4797 17.9077 13.6161 17.9499 13.7757C17.9921 13.9352 17.9695 14.105 17.8869 14.2479C17.8044 14.3909 17.6687 14.4953 17.5094 14.5386C17.3501 14.5818 17.1802 14.5603 17.0368 14.4787L15.6368 13.6712L15.933 14.775C15.9558 14.8548 15.9624 14.9383 15.9525 15.0207C15.9427 15.103 15.9165 15.1826 15.8756 15.2548C15.8346 15.3269 15.7797 15.3902 15.7141 15.4409C15.6485 15.4916 15.5734 15.5288 15.4932 15.5502C15.4131 15.5716 15.3295 15.5768 15.2473 15.5656C15.1651 15.5544 15.086 15.5269 15.0145 15.4847C14.943 15.4426 14.8807 15.3867 14.8311 15.3202C14.7815 15.2537 14.7456 15.178 14.7255 15.0975L14.108 12.7875L12.0205 11.5825V13.9913L13.713 15.6825C13.7711 15.7406 13.8172 15.8096 13.8487 15.8855C13.8801 15.9614 13.8963 16.0428 13.8963 16.125C13.8963 16.2072 13.8801 16.2886 13.8487 16.3645C13.8172 16.4404 13.7711 16.5094 13.713 16.5675C13.6549 16.6256 13.5859 16.6717 13.51 16.7032C13.4341 16.7346 13.3527 16.7508 13.2705 16.7508C13.1883 16.7508 13.107 16.7346 13.031 16.7032C12.9551 16.6717 12.8861 16.6256 12.828 16.5675L12.0205 15.7587V17.375C12.0205 17.5408 11.9547 17.6997 11.8375 17.8169C11.7202 17.9342 11.5613 18 11.3955 18C11.2297 18 11.0708 17.9342 10.9536 17.8169C10.8364 17.6997 10.7705 17.5408 10.7705 17.375V3.625C10.7705 3.45924 10.8364 3.30027 10.9536 3.18306C11.0708 3.06585 11.2297 3 11.3955 3Z" fill="#8A93A6"/>
  </g>
  <defs>
    <clipPath id="clip0_3629_4288">
      <rect width="20" height="20" fill="white" transform="translate(0.770508 0.5)"/>
    </clipPath>
  </defs>
</svg>