<svg xmlns="http://www.w3.org/2000/svg" width="25" height="25" viewBox="0 0 25 25" fill="none">
  <path d="M21.2939 10.0639C21.3468 9.94382 21.3754 9.8145 21.3782 9.68334C21.381 9.55219 21.3579 9.42176 21.3103 9.29954C21.2626 9.17731 21.1914 9.06567 21.1005 8.97102C21.0097 8.87636 20.9011 8.80054 20.7809 8.7479L7.70593 2.9919C6.71093 2.5539 5.48593 3.0429 5.06093 4.0339L2.85093 9.1879C2.64302 9.67542 2.63702 10.2255 2.83425 10.7175C3.03147 11.2094 3.41582 11.603 3.90293 11.8119L9.94093 14.3999L8.70093 17.4999H4.37793V14.4999H2.37793V22.4999H4.37793V19.4999H8.70093C9.52393 19.4999 10.2529 19.0059 10.5569 18.2419L11.7789 15.1879L16.9839 17.4179C17.2263 17.5219 17.5 17.5259 17.7454 17.4291C17.9907 17.3323 18.1879 17.1424 18.2939 16.9009L18.6059 16.1909L20.3069 16.8709L22.3069 11.8709L20.7709 11.2579L21.2939 10.0639ZM16.8599 15.1899L4.69093 9.9749L6.89893 4.8229L19.0609 10.1769L16.8599 15.1899Z" fill="#8A93A6"/>
</svg>