<svg xmlns="http://www.w3.org/2000/svg" width="12" height="17" viewBox="0 0 12 17" fill="none">
  <path d="M11.5 2C11.775 2 12 1.775 12 1.5V1C12 0.725 11.775 0.5 11.5 0.5H0.5C0.225 0.5 0 0.725 0 1V1.5C0 1.775 0.225 2 0.5 2H1V6.89687C0.36875 7.2125 0 7.59062 0 8C0 10.1 1.08125 11.9438 2.7125 13.0156L2.04375 15.2094C1.84688 15.85 2.32813 16.5 3 16.5H9C9.67188 16.5 10.1531 15.85 9.95625 15.2094L9.2875 13.0156C10.9188 11.9438 12 10.1 12 8C12 7.59062 11.6313 7.2125 11 6.89687V2H11.5ZM2.5 2.75C2.5 2.6125 2.6125 2.5 2.75 2.5H4.25C4.3875 2.5 4.5 2.6125 4.5 2.75V3.25C4.5 3.3875 4.3875 3.5 4.25 3.5H2.75C2.6125 3.5 2.5 3.3875 2.5 3.25V2.75ZM6 9C3.59063 9 1.6375 8.55313 1.6375 8C1.6375 7.44688 3.59063 7 6 7C8.40938 7 10.3625 7.44688 10.3625 8C10.3625 8.55313 8.40938 9 6 9Z" fill="white"/>
</svg>