<svg xmlns="http://www.w3.org/2000/svg" width="33" height="32" viewBox="0 0 33 32" fill="none">
<path d="M22.0166 2.78069C22.1827 2.87525 22.3112 3.02233 22.3812 3.19789C22.4511 3.37346 22.4584 3.56715 22.4018 3.7473L19.3457 13.5001H24.9845C25.1502 13.5 25.3123 13.5476 25.4508 13.637C25.5893 13.7264 25.6981 13.8536 25.7638 14.003C25.8295 14.1525 25.8492 14.3175 25.8205 14.4778C25.7917 14.6381 25.7159 14.7866 25.6022 14.905L12.0269 29.0709C11.8956 29.208 11.7208 29.2975 11.531 29.3246C11.3413 29.3517 11.1478 29.3149 10.9821 29.2202C10.8164 29.1255 10.6882 28.9784 10.6185 28.803C10.5487 28.6276 10.5416 28.4342 10.5981 28.2542L13.6542 18.4998H8.01542C7.84971 18.4999 7.6876 18.4523 7.54912 18.3629C7.41063 18.2735 7.30183 18.1463 7.23614 17.9968C7.17045 17.8474 7.15075 17.6824 7.17947 17.5221C7.20818 17.3618 7.28407 17.2133 7.39774 17.0949L20.973 2.92901C21.1042 2.79202 21.2787 2.70264 21.4682 2.67541C21.6577 2.64818 21.8509 2.68469 22.0166 2.77902V2.78069ZM9.97874 16.8332H14.8031C14.9358 16.8332 15.0668 16.8638 15.1853 16.9225C15.3039 16.9812 15.4067 17.0665 15.4856 17.1714C15.5645 17.2762 15.6173 17.3979 15.6396 17.5264C15.6619 17.655 15.6532 17.7869 15.6142 17.9115L13.2928 25.3161L23.0195 15.1667H18.1969C18.0641 15.1667 17.9332 15.1361 17.8146 15.0774C17.696 15.0186 17.5932 14.9334 17.5143 14.8285C17.4354 14.7236 17.3827 14.602 17.3603 14.4735C17.338 14.3449 17.3467 14.213 17.3857 14.0884L19.7071 6.6838L9.97874 16.8332Z" fill="#8A93A6"/>
</svg>