<svg xmlns="http://www.w3.org/2000/svg" width="16" height="17" viewBox="0 0 16 17" fill="none">
  <path d="M1 13.5002C1 14.2958 1.31607 15.0588 1.87868 15.6214C2.44129 16.1839 3.20435 16.5 4 16.5H12C12.7956 16.5 13.5587 16.1839 14.1213 15.6214C14.6839 15.0588 15 14.2958 15 13.5002V12.5002H1V13.5002ZM15.5 9.50041H12.5V8.50047H14.5C14.6326 8.50047 14.7598 8.44779 14.8536 8.35403C14.9473 8.26026 15 8.13309 15 8.00049V7.50052C15 7.36792 14.9473 7.24075 14.8536 7.14699C14.7598 7.05323 14.6326 7.00055 14.5 7.00055H12C11.7348 7.00055 11.4804 7.1059 11.2929 7.29343C11.1054 7.48095 11 7.73529 11 8.00049V9.50041H9V3.50076C9 3.23555 9.10536 2.98122 9.29289 2.79369C9.48043 2.60616 9.73478 2.50081 10 2.50081C10.2652 2.50081 10.5196 2.60616 10.7071 2.79369C10.8946 2.98122 11 3.23555 11 3.50076V4.00073C11 4.13333 11.0527 4.2605 11.1464 4.35426C11.2402 4.44802 11.3674 4.5007 11.5 4.5007H12.5C12.6326 4.5007 12.7598 4.44802 12.8536 4.35426C12.9473 4.2605 13 4.13333 13 4.00073V3.50076C12.9994 3.05623 12.9002 2.61737 12.7095 2.21583C12.5188 1.81428 12.2413 1.46004 11.8972 1.17865C11.553 0.897263 11.1507 0.695733 10.7193 0.588589C10.2878 0.481445 9.838 0.471356 9.40219 0.559051C7.97781 0.835598 7 2.16833 7 3.61919V9.50041H5V8.00049C5 7.73529 4.89464 7.48095 4.70711 7.29343C4.51957 7.1059 4.26522 7.00055 4 7.00055H1.5C1.36739 7.00055 1.24021 7.05323 1.14645 7.14699C1.05268 7.24075 1 7.36792 1 7.50052V8.00049C1 8.13309 1.05268 8.26026 1.14645 8.35403C1.24021 8.44779 1.36739 8.50047 1.5 8.50047H3.5V9.50041H0.5C0.367392 9.50041 0.240215 9.55308 0.146447 9.64684C0.0526784 9.74061 0 9.86778 0 10.0004L0 11.0003C0 11.1329 0.0526784 11.2601 0.146447 11.3539C0.240215 11.4476 0.367392 11.5003 0.5 11.5003H15.5C15.6326 11.5003 15.7598 11.4476 15.8536 11.3539C15.9473 11.2601 16 11.1329 16 11.0003V10.0004C16 9.86778 15.9473 9.74061 15.8536 9.64684C15.7598 9.55308 15.6326 9.50041 15.5 9.50041Z" fill="white"/>
</svg>