<svg xmlns="http://www.w3.org/2000/svg" width="33" height="32" viewBox="0 0 33 32" fill="none">
  <path d="M8.3667 17.45C8.3667 17.8625 8.7042 18.2 9.1167 18.2H14.6245L10.1245 13.7H9.1167C8.7042 13.7 8.3667 14.0375 8.3667 14.45V17.45ZM15.8667 3.19995C9.23857 3.19995 3.8667 8.57183 3.8667 15.2C3.8667 21.8281 9.23857 27.2 15.8667 27.2C22.4948 27.2 27.8667 21.8281 27.8667 15.2C27.8667 8.57183 22.4948 3.19995 15.8667 3.19995ZM15.8667 24.2C10.9026 24.2 6.8667 20.164 6.8667 15.2C6.8667 13.2593 7.49014 11.464 8.54014 9.99214L21.0745 22.5265C19.6026 23.5765 17.8073 24.2 15.8667 24.2ZM17.9854 15.2H21.8667V16.7H19.4854L17.9854 15.2ZM23.1933 20.4078L20.9854 18.2H22.6167C23.0292 18.2 23.3667 17.8625 23.3667 17.45V14.45C23.3667 14.0375 23.0292 13.7 22.6167 13.7H16.4854L10.6589 7.87339C12.1308 6.82339 13.9261 6.19995 15.8667 6.19995C20.8308 6.19995 24.8667 10.2359 24.8667 15.2C24.8667 17.1406 24.2433 18.9359 23.1933 20.4078ZM18.8948 9.19995C18.1636 9.19995 17.5542 8.67495 17.4229 7.98589C17.3901 7.81714 17.2354 7.69995 17.062 7.69995H16.3026C16.0683 7.69995 15.8948 7.91089 15.9276 8.14058C16.1433 9.58901 17.3901 10.7 18.8948 10.7C19.6261 10.7 20.2354 11.225 20.3667 11.914C20.3995 12.0828 20.5542 12.2 20.7276 12.2H21.487C21.7214 12.2 21.8948 11.989 21.862 11.7593C21.6464 10.3109 20.3995 9.19995 18.8948 9.19995Z" fill="#5C6173"/>
</svg>