<svg xmlns="http://www.w3.org/2000/svg" width="32" height="32" viewBox="0 0 32 32" fill="none">
<path d="M10.4 15.4666C11.2825 15.4666 12 14.7491 12 13.8666C12 12.9841 11.2825 12.2666 10.4 12.2666C9.5175 12.2666 8.8 12.9841 8.8 13.8666C8.8 14.7491 9.5175 15.4666 10.4 15.4666ZM21.6 15.4666C22.4825 15.4666 23.2 14.7491 23.2 13.8666C23.2 12.9841 22.4825 12.2666 21.6 12.2666C20.7175 12.2666 20 12.9841 20 13.8666C20 14.7491 20.7175 15.4666 21.6 15.4666ZM22.4 16.2666H20.8C20.36 16.2666 19.9625 16.4441 19.6725 16.7316C20.68 17.2841 21.395 18.2816 21.55 19.4666H23.2C23.6425 19.4666 24 19.1091 24 18.6666V17.8666C24 16.9841 23.2825 16.2666 22.4 16.2666ZM16 16.2666C17.5475 16.2666 18.8 15.0141 18.8 13.4666C18.8 11.9191 17.5475 10.6666 16 10.6666C14.4525 10.6666 13.2 11.9191 13.2 13.4666C13.2 15.0141 14.4525 16.2666 16 16.2666ZM17.92 17.0666H17.7125C17.1925 17.3166 16.615 17.4666 16 17.4666C15.385 17.4666 14.81 17.3166 14.2875 17.0666H14.08C12.49 17.0666 11.2 18.3566 11.2 19.9466V20.6666C11.2 21.3291 11.7375 21.8666 12.4 21.8666H19.6C20.2625 21.8666 20.8 21.3291 20.8 20.6666V19.9466C20.8 18.3566 19.51 17.0666 17.92 17.0666ZM12.3275 16.7316C12.0375 16.4441 11.64 16.2666 11.2 16.2666H9.6C8.7175 16.2666 8 16.9841 8 17.8666V18.6666C8 19.1091 8.3575 19.4666 8.8 19.4666H10.4475C10.605 18.2816 11.32 17.2841 12.3275 16.7316Z" fill="#8A93A6"/>
<path d="M24.4854 24.4854C26.7359 22.235 28.0001 19.1827 28.0001 16.0001C28.0001 12.8175 26.7359 9.76519 24.4854 7.51474C22.235 5.26429 19.1827 4 16.0001 4C12.8175 4 9.76519 5.26429 7.51474 7.51474M24.4854 24.4854C22.235 26.7359 19.1827 28.0001 16.0001 28.0001C12.8175 28.0001 9.76519 26.7359 7.51474 24.4854C5.26429 22.235 4 19.1827 4 16.0001C4 12.8175 5.26429 9.76519 7.51474 7.51474M24.4854 24.4854L7.51474 7.51474" stroke="#8A93A6" stroke-width="2" stroke-linecap="round" stroke-linejoin="round"/>
</svg>