<svg xmlns="http://www.w3.org/2000/svg" width="33" height="32" viewBox="0 0 33 32" fill="none">
<path d="M16.5 5.02661L15.5 6.14661C15.5 6.14661 13.7933 8.07994 12.0733 10.5866C10.3533 13.0933 8.5 16.0933 8.5 18.9733C8.5 21.095 9.34285 23.1298 10.8431 24.6301C12.3434 26.1304 14.3783 26.9733 16.5 26.9733C18.6217 26.9733 20.6566 26.1304 22.1569 24.6301C23.6571 23.1298 24.5 21.095 24.5 18.9733C24.5 16.0933 22.6467 13.0933 20.9267 10.5866C19.2067 8.07994 17.5 6.14661 17.5 6.14661L16.5 5.02661ZM16.5 9.19994C17.0867 9.89328 17.62 10.4666 18.74 12.0933C20.3533 14.4399 21.8333 17.4266 21.8333 18.9733C21.8333 21.9333 19.46 24.3066 16.5 24.3066C13.54 24.3066 11.1667 21.9333 11.1667 18.9733C11.1667 17.4266 12.6467 14.4399 14.26 12.0933C15.38 10.4666 15.9133 9.89328 16.5 9.19994Z" fill="#8A93A6"/>
</svg>