<svg width="1445" height="1558" viewBox="0 0 1445 1558" fill="none" xmlns="http://www.w3.org/2000/svg">
<g opacity="0.05" clip-path="url(#clip0_7128_6001)">
<mask id="mask0_7128_6001" style="mask-type:luminance" maskUnits="userSpaceOnUse" x="0" y="0" width="1445" height="1558">
<path d="M1445 0H0V1558H1445V0Z" fill="white"/>
</mask>
<g mask="url(#mask0_7128_6001)">
<path d="M1140.62 294.32L686.956 118.18C518.853 52.9116 333.505 146.933 272.971 328.182L109.606 817.324C49.0717 998.574 136.274 1198.42 304.377 1263.68L758.041 1439.82C926.145 1505.09 1111.49 1411.07 1172.03 1229.82L1335.39 740.679C1395.93 559.429 1308.72 359.588 1140.62 294.32Z" fill="#03B077"/>
<path d="M1141.51 809.079C1005.28 672.71 861.531 526.378 726.711 387.909C724.063 385.439 720.627 384.179 717.131 384.397C713.636 384.616 710.358 386.295 707.993 389.079C706.034 391.282 700.373 397.508 698.318 399.807C605.716 505.786 508.678 610.599 406.879 706.182C257.696 845.579 252.344 848.026 387.161 684.653C477.042 576.118 575.524 472.775 674.936 374.278C677.745 371.479 683.394 365.518 686.224 362.799C694.78 354.382 706.005 349.825 717.585 350.07C729.165 350.314 740.216 355.341 748.459 364.113C750.789 366.63 756.297 372.75 758.68 375.365C805.714 426.769 891.836 522.983 939.262 575.662C1007.76 652.286 1076.11 729.074 1144.3 806.027C1144.65 806.431 1144.85 806.966 1144.84 807.52C1144.83 808.074 1144.63 808.603 1144.27 808.997C1143.91 809.391 1143.42 809.619 1142.9 809.634C1142.39 809.648 1141.89 809.447 1141.51 809.074L1141.51 809.079Z" fill="#E7E7E7"/>
<path d="M1007.74 472.003C1012.31 495.662 1015.8 519.255 1018.96 543.073C1020.82 558.964 1022.3 574.743 1025.41 590.45C1028.13 606.607 1025.05 622.402 1019.79 637.829C1016.91 646.333 1012.85 654.319 1007.75 661.518C1007.55 661.799 1007.3 662.035 1007.01 662.21C1006.72 662.386 1006.4 662.498 1006.07 662.541C1005.74 662.584 1005.41 662.557 1005.09 662.462C1004.77 662.366 1004.47 662.203 1004.21 661.983C998.193 654.211 994.685 645.81 991.736 637.829C987.73 626.1 985.116 614.523 985.07 602.295C985.191 590.332 988.791 578.572 989.887 566.76C993.214 534.937 997.816 503.453 1003.79 472.003C1003.89 471.521 1004.15 471.092 1004.51 470.784C1004.87 470.477 1005.31 470.31 1005.77 470.31C1006.23 470.31 1006.68 470.477 1007.04 470.784C1007.4 471.092 1007.65 471.521 1007.76 472.003H1007.74Z" fill="#E7E7E7"/>
<path d="M702.92 558.559H665.267C661.025 558.559 657.586 562.267 657.586 566.841V607.438C657.586 612.012 661.025 615.72 665.267 615.72H702.92C707.162 615.72 710.601 612.012 710.601 607.438V566.841C710.601 562.267 707.162 558.559 702.92 558.559Z" fill="#E7E7E7"/>
<path d="M769.346 558.559H731.693C727.451 558.559 724.012 562.267 724.012 566.841V607.438C724.012 612.012 727.451 615.72 731.693 615.72H769.346C773.588 615.72 777.027 612.012 777.027 607.438V566.841C777.027 562.267 773.588 558.559 769.346 558.559Z" fill="#E7E7E7"/>
<path d="M769.346 630.178H731.693C727.451 630.178 724.012 633.886 724.012 638.46V679.057C724.012 683.631 727.451 687.339 731.693 687.339H769.346C773.588 687.339 777.027 683.631 777.027 679.057V638.46C777.027 633.886 773.588 630.178 769.346 630.178Z" fill="#E7E7E7"/>
<path d="M702.92 630.178H665.267C661.025 630.178 657.586 633.886 657.586 638.46V679.057C657.586 683.631 661.025 687.339 665.267 687.339H702.92C707.162 687.339 710.601 683.631 710.601 679.057V638.46C710.601 633.886 707.162 630.178 702.92 630.178Z" fill="#E7E7E7"/>
<path d="M490.214 1127.97C473.596 1130.59 425.738 1141.89 398.69 1149.45C393.901 1150.79 389.166 1152.34 385.299 1149.1C383.629 1147.72 382.375 1145.84 381.693 1143.69C381.011 1141.54 380.932 1139.22 381.466 1137.03C386.861 1114.83 386.106 1091.41 379.296 1069.67C374.768 1055.21 369.731 1037.69 366.14 1021.16C363.156 1004.48 361.122 986.275 359.779 971.084C357.765 948.24 349.588 926.531 336.259 908.64C334.94 906.87 334.135 904.719 333.945 902.458C333.755 900.196 334.187 897.924 335.189 895.927C336.316 893.688 338.061 891.883 340.181 890.762C342.302 889.641 344.694 889.259 347.026 889.669C361.138 892.332 375.645 891.113 389.205 886.126L391.057 885.419C455.195 861.034 521.981 845.664 589.764 839.689L591.722 839.52C605.988 838.104 619.693 832.83 631.568 824.187C633.541 822.786 635.87 822.083 638.231 822.173C640.592 822.263 642.868 823.143 644.745 824.69C648.17 827.549 648.478 832.124 648.577 836.767C650.274 915.533 682.841 913.752 682.841 913.752C657.195 889.318 665.033 829.23 671.46 801.609C672.095 798.88 671.988 796.012 671.15 793.348C670.313 790.683 668.781 788.336 666.739 786.585C664.487 784.656 661.725 783.547 658.851 783.419C655.977 783.291 653.139 784.15 650.747 785.873C636.264 796.312 619.859 803.211 602.488 804.638L600.115 804.836C517.916 811.787 436.93 830.423 359.261 860.26C358.514 860.549 357.766 860.837 357.018 861.126C340.621 867.473 323.033 868.391 305.858 865.237C303.154 864.742 300.374 865.141 297.885 866.381C295.396 867.622 293.313 869.647 291.911 872.188C290.51 874.73 289.855 877.67 290.033 880.621C290.21 883.571 291.213 886.395 292.908 888.72C309.22 911.114 319.25 938.072 321.814 966.412C323.534 985.282 326.108 1007.91 329.825 1028.63C334.278 1049.18 340.495 1070.97 346.072 1088.95C354.462 1115.95 355.513 1144.98 349.101 1172.6C348.427 1175.5 348.59 1178.55 349.569 1181.34C350.548 1184.13 352.296 1186.54 354.579 1188.23C356.861 1189.92 359.569 1190.82 362.338 1190.8C365.108 1190.79 367.807 1189.86 370.073 1188.14C384.296 1177.38 490.214 1127.97 490.214 1127.97Z" fill="#ABE3CB"/>
<path d="M1155 893.415L1153.76 895.308C1152.93 896.545 1151.76 898.434 1150.11 900.79C1149.26 901.962 1148.31 903.269 1147.26 904.711L1145.59 906.967C1144.98 907.723 1144.35 908.509 1143.7 909.327L1141.66 911.877L1140.58 913.222L1139.42 914.56C1138.62 915.465 1137.8 916.396 1136.96 917.355C1136.11 918.311 1135.26 919.322 1134.32 920.286C1125.4 929.845 1115.69 938.511 1105.32 946.175C1102.28 948.348 1099.16 950.669 1095.81 952.795C1094.14 953.87 1092.48 955.03 1090.72 956.08L1085.43 959.324C1078.22 963.591 1070.4 967.628 1062.11 971.513C1044.18 979.667 1025.6 986.064 1006.6 990.627C985.461 995.709 963.984 999.003 942.367 1000.48C939.558 1000.67 936.748 1000.87 933.918 1001L929.666 1001.22C928.223 1001.26 926.777 1001.3 925.33 1001.34L917.013 1001.57C915.607 1001.6 914.26 1001.67 912.803 1001.67L908.466 1001.68H899.752C898.28 1001.68 896.843 1001.67 895.412 1001.64L891.095 1001.55L882.428 1001.35L873.759 1001.02C850.598 1000.08 827.312 998.294 804.252 996.501C781.193 994.708 758.36 992.956 736.04 992.061C713.72 991.167 691.887 991.083 670.97 992.453C668.441 992.598 665.844 992.853 663.263 993.068C660.681 993.258 658.124 993.557 655.573 993.821C653.021 994.085 650.488 994.424 647.967 994.738C645.439 995.027 642.946 995.424 640.454 995.774C630.503 997.275 620.816 999.128 611.467 1001.33C602.117 1003.53 593.107 1006.08 584.483 1008.89C575.847 1011.68 567.638 1014.85 559.88 1018.23C552.1 1021.57 544.825 1025.23 537.982 1028.94C531.158 1032.68 524.895 1036.68 519.041 1040.55C508.961 1047.44 499.41 1055.19 490.48 1063.72C486.773 1067.34 483.512 1070.68 480.777 1073.7C480.086 1074.46 479.417 1075.18 478.77 1075.87L477.003 1077.94L473.905 1081.54C470.316 1085.99 468.402 1088.36 468.402 1088.36L469.339 1086.28C469.969 1084.91 470.836 1082.83 472.119 1080.2L474.344 1075.83L475.651 1073.33C476.139 1072.48 476.647 1071.59 477.174 1070.67L478.822 1067.8L479.693 1066.29L480.655 1064.77C481.312 1063.74 481.989 1062.69 482.688 1061.6C483.389 1060.51 484.091 1059.37 484.89 1058.26C492.393 1047.33 500.886 1037.23 510.244 1028.11C513.002 1025.51 515.824 1022.77 518.901 1020.19L521.202 1018.19L522.369 1017.18L523.573 1016.21L528.467 1012.26C535.531 1006.82 542.843 1001.77 550.378 997.127C567.427 986.783 585.406 978.331 604.038 971.902C613.939 968.44 624.241 965.404 634.905 962.859C640.231 961.567 645.639 960.41 651.13 959.388C653.873 958.884 656.632 958.349 659.411 957.924C662.189 957.471 664.97 957.028 667.863 956.658C690.753 953.722 713.797 952.408 736.846 952.723C760.212 952.905 783.724 954.342 806.97 956.145C830.212 957.98 853.207 960.147 875.685 961.8L884.094 962.427L892.44 962.941L896.598 963.213C897.989 963.312 899.365 963.395 900.714 963.449L908.841 963.835L912.888 964.046C914.226 964.128 915.659 964.138 917.036 964.19L925.354 964.432L929.29 964.552L933.277 964.611C935.933 964.669 938.576 964.662 941.208 964.655C961.429 964.669 981.632 963.353 1001.7 960.712C1019.67 958.378 1037.46 954.63 1054.92 949.499C1063.04 947.114 1070.69 944.378 1077.93 941.596C1085.17 938.793 1091.87 935.669 1098.17 932.652C1109.04 927.255 1119.54 921.025 1129.58 914.008C1133.76 911.025 1137.46 908.262 1140.6 905.733C1141.4 905.107 1142.16 904.505 1142.89 903.927C1143.61 903.323 1144.29 902.746 1144.94 902.196C1146.26 901.088 1147.45 900.084 1148.53 899.183L1155 893.415Z" fill="#ABE3CB"/>
<path d="M1026.15 1104.03L1020.75 1106.62C1018.98 1107.43 1016.84 1108.53 1014.2 1109.56C1011.58 1110.61 1008.58 1111.95 1005.14 1113.14L999.704 1115.01L996.781 1116.02C995.773 1116.32 994.744 1116.63 993.695 1116.94L987.118 1118.87C984.83 1119.48 982.435 1120.02 979.979 1120.63C968.911 1123.24 957.702 1125.1 946.417 1126.2C933.05 1127.5 919.623 1127.94 906.207 1127.54C891.233 1127.09 876.293 1125.74 861.456 1123.51L858.555 1123.09L857.827 1122.99L857.036 1122.86L855.602 1122.62L849.848 1121.63L844.052 1120.62L838.157 1119.47L832.221 1118.29L829.241 1117.7L826.284 1117.05L814.396 1114.39C798.508 1110.73 782.538 1106.46 766.622 1102.19C750.725 1097.83 734.885 1093.45 719.309 1089.28C711.511 1087.26 703.788 1085.23 696.136 1083.37L690.418 1081.96L684.728 1080.66C680.944 1079.82 677.199 1078.87 673.465 1078.13C669.736 1077.35 666.039 1076.53 662.368 1075.82C658.691 1075.14 655.053 1074.46 651.453 1073.78C649.654 1073.41 647.856 1073.15 646.07 1072.86L640.742 1072.01L635.535 1071.19L630.256 1070.47L627.65 1070.12L625.108 1069.84C623.419 1069.64 621.741 1069.45 620.076 1069.27C616.718 1068.98 613.408 1068.62 610.147 1068.41L605.296 1068.06C603.69 1067.95 602.102 1067.91 600.526 1067.82C598.95 1067.74 597.387 1067.65 595.843 1067.62L591.245 1067.51C579.105 1067.24 567.948 1067.65 558.076 1068.47C548.205 1069.29 539.612 1070.45 532.554 1071.64C525.515 1072.92 519.978 1074.03 516.231 1074.94L510.469 1076.3L515.992 1074.04C517.791 1073.28 520.055 1072.51 522.708 1071.54C525.351 1070.52 528.454 1069.6 531.919 1068.5C538.876 1066.44 547.413 1064.13 557.362 1062.27C568.517 1060.19 579.775 1058.81 591.078 1058.14C604.494 1057.32 617.943 1057.4 631.351 1058.35L636.657 1058.74L642.143 1059.32L647.638 1059.9C649.479 1060.1 651.337 1060.27 653.189 1060.55C656.899 1061.05 660.645 1061.57 664.428 1062.12C668.205 1062.69 672 1063.38 675.838 1064.02C679.677 1064.65 683.522 1065.4 687.394 1066.17L693.225 1067.32L699.065 1068.58C702.965 1069.44 706.915 1070.24 710.839 1071.18L722.67 1074.02C738.49 1077.88 754.403 1082.24 770.29 1086.51C778.229 1088.7 786.146 1090.85 794.041 1092.96L805.845 1096.09L817.583 1099.12C825.392 1101.02 833.14 1102.96 840.746 1104.65L846.454 1105.95L852.222 1107.13L857.947 1108.32L859.369 1108.62L860.005 1108.76L860.707 1108.89L863.517 1109.41C878.443 1112.21 892.982 1114.24 906.826 1115.46C920.669 1116.67 933.814 1117.12 945.95 1116.91C957.008 1116.75 968.049 1115.95 979.029 1114.53C981.481 1114.19 983.867 1113.92 986.156 1113.56L992.762 1112.42L995.879 1111.9L998.839 1111.26L1004.36 1110.07C1011.29 1108.36 1016.79 1107.01 1020.47 1105.77C1024.17 1104.62 1026.15 1104.03 1026.15 1104.03Z" fill="#ABE3CB"/>
</g>
</g>
<defs>
<clipPath id="clip0_7128_6001">
<rect width="1445" height="1558" fill="white"/>
</clipPath>
</defs>
</svg>
