<svg width="661" height="657" viewBox="0 0 661 657" fill="none" xmlns="http://www.w3.org/2000/svg">
<g opacity="0.2" clip-path="url(#clip0_6842_5491)" filter="url(#filter0_f_6842_5491)">
<mask id="mask0_6842_5491" style="mask-type:luminance" maskUnits="userSpaceOnUse" x="5" y="-47" width="651" height="702">
<path d="M656 -47H5V655H656V-47Z" fill="white"/>
</mask>
<g mask="url(#mask0_6842_5491)">
<path d="M518.872 85.614L314.487 6.24916C238.754 -23.1591 155.251 19.2048 127.979 100.872L54.3802 321.268C27.1084 402.935 66.3946 492.979 142.128 522.387L346.513 601.752C422.246 631.161 505.749 588.797 533.021 507.13L606.62 286.733C633.892 205.066 594.606 115.022 518.872 85.614Z" fill="url(#paint0_linear_6842_5491)"/>
<path d="M519.272 317.553C457.897 256.108 393.136 190.174 332.397 127.783C331.204 126.67 329.656 126.102 328.081 126.201C326.506 126.299 325.029 127.056 323.964 128.31C323.081 129.303 320.531 132.108 319.605 133.144C277.886 180.896 234.169 228.122 188.306 271.19C121.097 333.999 118.685 335.102 179.423 261.489C219.916 212.586 264.284 166.022 309.071 121.641C310.337 120.38 312.882 117.695 314.157 116.469C318.011 112.677 323.068 110.624 328.285 110.734C333.502 110.844 338.481 113.109 342.195 117.061C343.244 118.196 345.726 120.953 346.8 122.131C367.989 145.293 406.789 188.645 428.155 212.381C459.015 246.906 489.806 281.505 520.53 316.178C520.688 316.36 520.775 316.601 520.772 316.851C520.769 317.1 520.676 317.339 520.514 317.516C520.351 317.694 520.131 317.797 519.9 317.803C519.668 317.809 519.444 317.719 519.273 317.551L519.272 317.553Z" fill="#E7E7E7"/>
<path d="M459.006 165.674C461.066 176.334 462.638 186.965 464.061 197.697C464.897 204.857 465.568 211.967 466.969 219.044C468.193 226.324 466.805 233.441 464.437 240.392C463.136 244.224 461.307 247.822 459.012 251.065C458.92 251.192 458.806 251.298 458.676 251.377C458.546 251.456 458.403 251.507 458.255 251.526C458.107 251.546 457.957 251.534 457.813 251.491C457.669 251.447 457.535 251.374 457.418 251.275C454.705 247.773 453.124 243.988 451.796 240.392C449.991 235.107 448.813 229.89 448.793 224.381C448.847 218.991 450.469 213.692 450.963 208.37C452.462 194.031 454.535 179.845 457.225 165.674C457.272 165.457 457.387 165.264 457.549 165.125C457.711 164.987 457.912 164.911 458.119 164.911C458.326 164.911 458.527 164.987 458.689 165.125C458.852 165.264 458.966 165.457 459.014 165.674H459.006Z" fill="#E7E7E7"/>
<path d="M321.68 204.674H304.716C302.805 204.674 301.256 206.345 301.256 208.406V226.698C301.256 228.759 302.805 230.43 304.716 230.43H321.68C323.591 230.43 325.14 228.759 325.14 226.698V208.406C325.14 206.345 323.591 204.674 321.68 204.674Z" fill="#E7E7E7"/>
<path d="M351.606 204.674H334.642C332.731 204.674 331.182 206.345 331.182 208.406V226.698C331.182 228.759 332.731 230.43 334.642 230.43H351.606C353.517 230.43 355.066 228.759 355.066 226.698V208.406C355.066 206.345 353.517 204.674 351.606 204.674Z" fill="#E7E7E7"/>
<path d="M351.606 236.944H334.642C332.731 236.944 331.182 238.615 331.182 240.676V258.968C331.182 261.029 332.731 262.7 334.642 262.7H351.606C353.517 262.7 355.066 261.029 355.066 258.968V240.676C355.066 238.615 353.517 236.944 351.606 236.944Z" fill="#E7E7E7"/>
<path d="M321.68 236.944H304.716C302.805 236.944 301.256 238.615 301.256 240.676V258.968C301.256 261.029 302.805 262.7 304.716 262.7H321.68C323.591 262.7 325.14 261.029 325.14 258.968V240.676C325.14 238.615 323.591 236.944 321.68 236.944Z" fill="#E7E7E7"/>
<path d="M225.851 461.24C218.364 462.419 196.803 467.511 184.617 470.917C182.46 471.52 180.327 472.217 178.585 470.76C177.832 470.137 177.267 469.288 176.96 468.32C176.653 467.352 176.617 466.308 176.858 465.319C179.288 455.316 178.948 444.765 175.88 434.969C173.84 428.454 171.571 420.561 169.953 413.111C168.609 405.598 167.693 397.393 167.087 390.549C166.18 380.256 162.496 370.474 156.491 362.413C155.897 361.615 155.534 360.646 155.449 359.627C155.363 358.608 155.558 357.585 156.009 356.685C156.517 355.676 157.303 354.863 158.258 354.358C159.214 353.852 160.291 353.68 161.342 353.865C167.7 355.065 174.235 354.516 180.344 352.268L181.179 351.95C210.074 340.963 240.163 334.037 270.7 331.345L271.582 331.269C278.009 330.631 284.184 328.254 289.533 324.36C290.422 323.729 291.472 323.412 292.535 323.453C293.599 323.493 294.625 323.89 295.47 324.587C297.013 325.875 297.152 327.936 297.196 330.029C297.961 365.519 312.633 364.716 312.633 364.716C301.079 353.707 304.61 326.633 307.506 314.187C307.792 312.958 307.743 311.665 307.366 310.465C306.989 309.264 306.299 308.206 305.379 307.418C304.364 306.548 303.12 306.049 301.825 305.991C300.53 305.934 299.252 306.321 298.174 307.097C291.649 311.8 284.258 314.909 276.433 315.552L275.363 315.641C238.331 318.773 201.845 327.17 166.854 340.614C166.517 340.744 166.18 340.874 165.843 341.004C158.456 343.864 150.533 344.277 142.795 342.857C141.577 342.633 140.324 342.813 139.203 343.372C138.081 343.931 137.143 344.843 136.512 345.989C135.88 347.134 135.585 348.458 135.665 349.788C135.745 351.118 136.197 352.39 136.961 353.437C144.309 363.528 148.828 375.674 149.984 388.444C150.758 396.946 151.918 407.14 153.592 416.477C155.598 425.739 158.4 435.555 160.912 443.658C164.692 455.824 165.165 468.901 162.277 481.347C161.973 482.652 162.046 484.026 162.488 485.285C162.929 486.544 163.716 487.627 164.744 488.389C165.773 489.151 166.993 489.556 168.24 489.549C169.488 489.543 170.704 489.124 171.725 488.351C178.133 483.5 225.851 461.24 225.851 461.24Z" fill="#ABE3CB"/>
<path d="M525.35 355.553L524.792 356.406C524.417 356.963 523.888 357.814 523.146 358.876C522.762 359.404 522.334 359.993 521.861 360.642L521.109 361.659C520.836 361.999 520.553 362.354 520.258 362.722L519.338 363.871L518.852 364.477L518.328 365.08C517.971 365.488 517.602 365.907 517.222 366.339C516.84 366.77 516.454 367.226 516.032 367.66C512.013 371.967 507.64 375.872 502.965 379.325C501.596 380.304 500.19 381.35 498.681 382.308C497.931 382.792 497.181 383.315 496.391 383.788L494.006 385.25C490.756 387.173 487.236 388.991 483.5 390.742C475.421 394.416 467.051 397.298 458.493 399.354C448.968 401.644 439.292 403.128 429.554 403.793C428.288 403.882 427.022 403.969 425.747 404.028L423.832 404.127C423.181 404.146 422.53 404.165 421.878 404.183L418.131 404.286C417.498 404.3 416.891 404.33 416.234 404.328L414.281 404.335H410.355C409.692 404.335 409.044 404.329 408.399 404.314L406.455 404.277L402.55 404.188L398.645 404.039C388.21 403.615 377.719 402.809 367.33 402.001C356.941 401.193 346.655 400.403 336.599 400C326.544 399.597 316.708 399.56 307.284 400.177C306.145 400.242 304.975 400.357 303.812 400.454C302.649 400.54 301.497 400.674 300.347 400.793C299.198 400.912 298.057 401.065 296.921 401.207C295.782 401.337 294.659 401.516 293.536 401.674C289.053 402.35 284.689 403.185 280.477 404.177C276.264 405.169 272.205 406.316 268.32 407.584C264.429 408.84 260.731 410.267 257.236 411.79C253.731 413.295 250.453 414.948 247.37 416.619C244.296 418.302 241.474 420.104 238.837 421.848C234.296 424.952 229.993 428.444 225.97 432.29C224.3 433.919 222.831 435.423 221.598 436.787C221.287 437.126 220.986 437.451 220.694 437.762L219.898 438.694L218.503 440.316C216.885 442.322 216.023 443.392 216.023 443.392L216.445 442.453C216.729 441.836 217.12 440.898 217.698 439.712L218.7 437.747L219.289 436.617C219.509 436.233 219.738 435.835 219.975 435.421L220.718 434.127L221.11 433.445L221.544 432.762C221.839 432.299 222.145 431.823 222.459 431.332C222.775 430.842 223.092 430.326 223.451 429.829C226.832 424.903 230.658 420.352 234.874 416.244C236.116 415.074 237.388 413.835 238.774 412.673L239.811 411.775L240.336 411.32L240.879 410.883L243.084 409.101C246.266 406.651 249.561 404.376 252.955 402.283C260.636 397.622 268.736 393.814 277.13 390.917C281.591 389.357 286.232 387.989 291.036 386.843C293.436 386.261 295.872 385.739 298.346 385.279C299.582 385.052 300.825 384.811 302.077 384.619C303.328 384.415 304.581 384.215 305.884 384.049C316.197 382.726 326.578 382.134 336.962 382.276C347.489 382.357 358.082 383.005 368.555 383.817C379.025 384.644 389.385 385.62 399.512 386.365L403.3 386.648L407.061 386.88L408.934 387.002C409.56 387.047 410.18 387.084 410.788 387.108L414.449 387.283L416.273 387.377C416.876 387.415 417.521 387.419 418.141 387.442L421.889 387.552L423.662 387.606L425.459 387.632C426.655 387.658 427.846 387.655 429.031 387.652C438.141 387.658 447.243 387.065 456.286 385.875C464.381 384.823 472.394 383.135 480.261 380.823C483.918 379.748 487.367 378.515 490.628 377.262C493.889 375.999 496.907 374.591 499.747 373.232C504.643 370.8 509.372 367.993 513.896 364.832C515.778 363.487 517.445 362.243 518.862 361.103C519.221 360.821 519.565 360.55 519.895 360.289C520.217 360.017 520.524 359.757 520.817 359.509C521.411 359.01 521.95 358.557 522.433 358.151L525.35 355.553Z" fill="#ABE3CB"/>
<path d="M467.3 450.452L464.868 451.616C464.069 451.982 463.106 452.478 461.918 452.941C460.737 453.416 459.386 454.018 457.834 454.554L455.386 455.4L454.069 455.854C453.615 455.989 453.152 456.127 452.679 456.268L449.716 457.137C448.685 457.412 447.606 457.657 446.5 457.931C441.513 459.109 436.463 459.947 431.38 460.44C425.357 461.024 419.309 461.226 413.264 461.045C406.518 460.841 399.787 460.235 393.103 459.23L391.796 459.041L391.468 458.994L391.112 458.935L390.465 458.826L387.874 458.382L385.262 457.927L382.606 457.407L379.932 456.877L378.59 456.609L377.257 456.319L371.902 455.12C364.744 453.47 357.549 451.545 350.378 449.621C343.217 447.657 336.08 445.683 329.063 443.805C325.55 442.895 322.071 441.979 318.623 441.14L316.047 440.506L313.484 439.921C311.779 439.541 310.092 439.114 308.409 438.78C306.729 438.43 305.064 438.059 303.41 437.74C301.753 437.436 300.114 437.129 298.492 436.819C297.682 436.655 296.872 436.538 296.067 436.408L293.667 436.025L291.321 435.652L288.943 435.331L287.769 435.174L286.624 435.044C285.863 434.957 285.107 434.872 284.357 434.787C282.844 434.657 281.352 434.497 279.884 434.402L277.698 434.246C276.975 434.196 276.259 434.174 275.549 434.137C274.839 434.1 274.135 434.061 273.439 434.047L271.368 433.996C265.898 433.874 260.872 434.061 256.425 434.428C251.977 434.796 248.106 435.323 244.927 435.858C241.755 436.432 239.261 436.932 237.573 437.343L234.977 437.959L237.465 436.941C238.276 436.598 239.295 436.249 240.491 435.811C241.681 435.351 243.079 434.937 244.64 434.442C247.775 433.512 251.62 432.472 256.103 431.634C261.128 430.697 266.2 430.075 271.293 429.773C277.337 429.407 283.396 429.439 289.436 429.868L291.827 430.045L294.298 430.305L296.774 430.568C297.603 430.658 298.441 430.735 299.275 430.86C300.946 431.084 302.634 431.319 304.338 431.566C306.04 431.826 307.749 432.135 309.479 432.422C311.208 432.709 312.94 433.045 314.685 433.39L317.312 433.91L319.943 434.477C321.7 434.867 323.479 435.227 325.247 435.652L330.577 436.93C337.704 438.668 344.874 440.635 352.031 442.559C355.608 443.545 359.174 444.512 362.731 445.462L368.049 446.874L373.338 448.239C376.855 449.094 380.346 449.969 383.773 450.73L386.344 451.315L388.943 451.848L391.522 452.386L392.163 452.521L392.449 452.582L392.766 452.64L394.032 452.875C400.756 454.137 407.306 455.052 413.543 455.6C419.78 456.147 425.701 456.35 431.169 456.255C436.151 456.18 441.125 455.822 446.072 455.182C447.177 455.031 448.251 454.905 449.283 454.746L452.259 454.233L453.663 453.997L454.996 453.709L457.485 453.174C460.607 452.402 463.084 451.793 464.743 451.234C466.409 450.719 467.3 450.452 467.3 450.452Z" fill="#ABE3CB"/>
</g>
</g>
<defs>
<filter id="filter0_f_6842_5491" x="-40" y="-92" width="741" height="792" filterUnits="userSpaceOnUse" color-interpolation-filters="sRGB">
<feFlood flood-opacity="0" result="BackgroundImageFix"/>
<feBlend mode="normal" in="SourceGraphic" in2="BackgroundImageFix" result="shape"/>
<feGaussianBlur stdDeviation="22.5" result="effect1_foregroundBlur_6842_5491"/>
</filter>
<linearGradient id="paint0_linear_6842_5491" x1="117.5" y1="93.5" x2="459.573" y2="559.464" gradientUnits="userSpaceOnUse">
<stop offset="0.661809" stop-color="#03B077"/>
<stop offset="1" stop-color="#03B077" stop-opacity="0"/>
</linearGradient>
<clipPath id="clip0_6842_5491">
<rect width="651" height="702" fill="white" transform="translate(5 -47)"/>
</clipPath>
</defs>
</svg>
