<svg xmlns="http://www.w3.org/2000/svg" width="20" height="20" viewBox="0 0 20 20" fill="none">
  <g clip-path="url(#clip0_367_2925)">
    <path d="M9.57126 7.80859C9.70876 7.39609 10.2913 7.39609 10.4288 7.80859L11.235 10.2298C11.4125 10.7621 11.7115 11.2457 12.1083 11.6423C12.5051 12.0389 12.9889 12.3377 13.5213 12.5148L15.9413 13.3211C16.3538 13.4586 16.3538 14.0411 15.9413 14.1786L13.52 14.9848C12.9878 15.1623 12.5042 15.4613 12.1075 15.8581C11.7109 16.255 11.4122 16.7387 11.235 17.2711L10.4288 19.6911C10.3991 19.7814 10.3417 19.8601 10.2647 19.9158C10.1877 19.9716 10.0951 20.0016 10 20.0016C9.90494 20.0016 9.8123 19.9716 9.73531 19.9158C9.65832 19.8601 9.6009 19.7814 9.57126 19.6911L8.76501 17.2698C8.58767 16.7377 8.28886 16.2542 7.89225 15.8576C7.49564 15.461 7.01213 15.1622 6.48001 14.9848L4.05876 14.1786C3.96843 14.1489 3.88977 14.0915 3.83401 14.0145C3.77824 13.9375 3.74822 13.8449 3.74822 13.7498C3.74822 13.6548 3.77824 13.5621 3.83401 13.4851C3.88977 13.4081 3.96843 13.3507 4.05876 13.3211L6.48001 12.5148C7.01213 12.3375 7.49564 12.0387 7.89225 11.6421C8.28886 11.2455 8.58767 10.762 8.76501 10.2298L9.57126 7.80859ZM4.74251 1.43484C4.76043 1.38071 4.79496 1.3336 4.84119 1.30021C4.88741 1.26682 4.94299 1.24885 5.00001 1.24885C5.05703 1.24885 5.1126 1.26682 5.15883 1.30021C5.20505 1.3336 5.23958 1.38071 5.25751 1.43484L5.74126 2.88734C5.95751 3.53484 6.46501 4.04234 7.11251 4.25859L8.56501 4.74234C8.61914 4.76026 8.66625 4.79479 8.69963 4.84102C8.73302 4.88724 8.75099 4.94281 8.75099 4.99984C8.75099 5.05686 8.73302 5.11243 8.69963 5.15866C8.66625 5.20488 8.61914 5.23941 8.56501 5.25734L7.11251 5.74109C6.79316 5.84748 6.50299 6.02679 6.26498 6.26481C6.02696 6.50282 5.84765 6.79299 5.74126 7.11234L5.25751 8.56484C5.23958 8.61897 5.20505 8.66608 5.15883 8.69946C5.1126 8.73285 5.05703 8.75082 5.00001 8.75082C4.94299 8.75082 4.88741 8.73285 4.84119 8.69946C4.79496 8.66608 4.76043 8.61897 4.74251 8.56484L4.25876 7.11234C4.15236 6.79299 3.97305 6.50282 3.73504 6.26481C3.49703 6.02679 3.20685 5.84748 2.88751 5.74109L1.43501 5.25734C1.38088 5.23941 1.33377 5.20488 1.30038 5.15866C1.26699 5.11243 1.24902 5.05686 1.24902 4.99984C1.24902 4.94281 1.26699 4.88724 1.30038 4.84102C1.33377 4.79479 1.38088 4.76026 1.43501 4.74234L2.88751 4.25859C3.20685 4.15219 3.49703 3.97288 3.73504 3.73487C3.97305 3.49686 4.15236 3.20668 4.25876 2.88734L4.74251 1.43484ZM13.5788 0.123587C13.5911 0.0879952 13.6142 0.0571322 13.6449 0.0352893C13.6756 0.0134464 13.7123 0.00170898 13.75 0.00170898C13.7877 0.00170898 13.8244 0.0134464 13.8551 0.0352893C13.8858 0.0571322 13.9089 0.0879952 13.9213 0.123587L14.2438 1.09109C14.3875 1.52359 14.7263 1.86234 15.1588 2.00609L16.1263 2.32859C16.1619 2.34093 16.1927 2.36405 16.2146 2.39474C16.2364 2.42543 16.2481 2.46217 16.2481 2.49984C16.2481 2.53751 16.2364 2.57424 16.2146 2.60493C16.1927 2.63562 16.1619 2.65875 16.1263 2.67109L15.1588 2.99359C14.9456 3.06449 14.7519 3.18411 14.5931 3.34294C14.4343 3.50177 14.3147 3.69545 14.2438 3.90859L13.9213 4.87609C13.9089 4.91168 13.8858 4.94254 13.8551 4.96439C13.8244 4.98623 13.7877 4.99797 13.75 4.99797C13.7123 4.99797 13.6756 4.98623 13.6449 4.96439C13.6142 4.94254 13.5911 4.91168 13.5788 4.87609L13.2563 3.90859C13.1854 3.69545 13.0657 3.50177 12.9069 3.34294C12.7481 3.18411 12.5544 3.06449 12.3413 2.99359L11.375 2.67109C11.3394 2.65875 11.3086 2.63562 11.2867 2.60493C11.2649 2.57424 11.2531 2.53751 11.2531 2.49984C11.2531 2.46217 11.2649 2.42543 11.2867 2.39474C11.3086 2.36405 11.3394 2.34093 11.375 2.32859L12.3425 2.00609C12.775 1.86234 13.1138 1.52359 13.2575 1.09109L13.5788 0.124837V0.123587Z" fill="#03B077"/>
  </g>
  <defs>
    <clipPath id="clip0_367_2925">
      <rect width="20" height="20" fill="white"/>
    </clipPath>
  </defs>
</svg>