<svg width="48" height="60" viewBox="0 0 48 60" fill="none" xmlns="http://www.w3.org/2000/svg">
<path d="M27.0541 48.4455C27.3153 47.7794 27.9193 47.3107 28.6265 47.1737C39.6676 45.0348 48 35.3866 48 23.8078C48 10.6591 37.2548 0 24 0C10.7452 0 0 10.6591 0 23.8078C0 35.2469 8.1326 44.8017 18.9751 47.093C19.6673 47.2393 20.2551 47.704 20.5117 48.3583L21.9361 51.9899C22.5974 53.676 25.0026 53.676 25.6639 51.9899L27.0541 48.4455Z" fill="#03B077"/>
<path d="M26.2 57.8176C26.2 59.0229 25.215 60 24 60C22.785 60 21.8 59.0229 21.8 57.8176C21.8 56.6123 22.785 55.6352 24 55.6352C25.215 55.6352 26.2 56.6123 26.2 57.8176Z" fill="#03B077"/>
<path fill-rule="evenodd" clip-rule="evenodd" d="M32 13C32 8.57333 28.4267 5 24 5C19.5733 5 16 8.57333 16 13C16 17.4267 19.5733 21 24 21C28.4267 21 32 17.4267 32 13ZM8 34.5467C11.44 39.72 17.3333 43.1333 24 43.1333C30.6667 43.1333 36.56 39.72 40 34.5467C39.92 29.24 29.3067 26.3333 24 26.3333C18.6667 26.3333 8.08 29.24 8 34.5467Z" fill="white"/>
</svg>
