<svg width="64" height="75" viewBox="0 0 64 75" fill="none" xmlns="http://www.w3.org/2000/svg">
<path fill-rule="evenodd" clip-rule="evenodd" d="M41.3433 62.7991C41.4683 62.6403 41.6391 62.5234 41.8315 62.4614C54.6945 58.3129 64 46.2432 64 32C64 14.3269 49.6731 0 32 0C14.3269 0 0 14.3269 0 32C0 46.2432 9.30548 58.3129 22.1685 62.4614C22.3609 62.5234 22.5317 62.6403 22.6567 62.7991L31.2143 73.6687C31.6147 74.1772 32.3853 74.1772 32.7857 73.6687L41.3433 62.7991Z" fill="#0288D1"/>
<g clip-path="url(#clip0_563_184)">
<path d="M48.811 29.0625L32.8743 13.1375C32.7596 13.0225 32.6233 12.9313 32.4733 12.8691C32.3232 12.8068 32.1624 12.7748 31.9999 12.7748C31.8375 12.7748 31.6767 12.8068 31.5266 12.8691C31.3766 12.9313 31.2403 13.0225 31.1255 13.1375L15.1889 29.0625C14.7246 29.5268 14.4615 30.1574 14.4615 30.8152C14.4615 32.181 15.572 33.2914 16.9377 33.2914H18.6169V44.6548C18.6169 45.3396 19.1702 45.8929 19.855 45.8929H29.5238V37.2262H33.8571V45.8929H44.1449C44.8297 45.8929 45.383 45.3396 45.383 44.6548V33.2914H47.0621C47.7199 33.2914 48.3505 33.0321 48.8148 32.564C49.7782 31.5967 49.7782 30.0298 48.811 29.0625Z" fill="white"/>
</g>
<defs>
<clipPath id="clip0_563_184">
<rect width="34.6667" height="34.6667" fill="white" transform="translate(14.6666 12)"/>
</clipPath>
</defs>
</svg>
